<?xml version="1.0" encoding="utf-8"?>
<!-- Generator: Adobe Illustrator 15.0.0, SVG Export Plug-In . SVG Version: 6.00 Build 0)  -->
<!DOCTYPE svg PUBLIC "-//W3C//DTD SVG 1.1//EN" "http://www.w3.org/Graphics/SVG/1.1/DTD/svg11.dtd">
<svg version="1.1" xmlns="http://www.w3.org/2000/svg" xmlns:xlink="http://www.w3.org/1999/xlink" x="0px" y="0px" width="580px"
	 height="580px" viewBox="0 0 580 580" enable-background="new 0 0 580 580" xml:space="preserve">
<g id="Layer_2">
	<g id="g1327">
		<path id="path1329" fill="#111111" stroke="#EEEEEE" stroke-width="3.408" d="M66.275,1.768
			c-41.335,0-64.571,21.371-64.571,65.036v450.123c0,40.844,20.894,62.229,62.192,62.229H515.92
			c41.307,0,62.229-20.316,62.229-62.229V66.804c0-42.601-20.923-65.036-63.522-65.036C514.624,1.768,66.133,1.625,66.275,1.768z"/>
	</g>
</g>
<g id="svg2" inkscape:version="0.46" sodipodi:docname="waste_bin.svg" sodipodi:version="0.32" xmlns:cc="http://creativecommons.org/ns#" xmlns:dc="http://purl.org/dc/elements/1.1/" xmlns:rdf="http://www.w3.org/1999/02/22-rdf-syntax-ns#" xmlns:inkscape="http://www.inkscape.org/namespaces/inkscape" xmlns:svg="http://www.w3.org/2000/svg" xmlns:sodipodi="http://sodipodi.sourceforge.net/DTD/sodipodi-0.dtd" inkscape:output_extension="org.inkscape.output.svg.inkscape">
	<g>
		<path id="path2806_1_" inkscape:connector-curvature="0" fill="#FFFFFF" d="M108.992,351.297l72.148-73.379l-0.331-42.829
			l-53.107,51.929c-1.762-83.065,69.764-152.831,136.943-161.804l-5.952-35.941C140.739,112.62,93.238,204.831,90.969,286.713
			L37.356,234.59l-0.244,44.539L108.992,351.297L108.992,351.297z"/>
		<path id="path3753_1_" inkscape:connector-curvature="0" fill="#FFFFFF" d="M439.936,416.877l-99.726-25.389l-36.838,21.852
			l71.606,19.736c-70.881,43.346-167.171,16.676-208.749-36.848l-28.057,23.238c79.563,90.156,183.149,84.768,255.039,45.5
			l-18.04,72.564l38.604-22.215L439.936,416.877L439.936,416.877z"/>
		<path id="path3755_1_" inkscape:connector-curvature="0" fill="#FFFFFF" d="M330.928,98.419l28.114,98.992l37.394,20.887
			l-18.884-71.837c73.075,39.535,98.357,136.199,72.944,199.031l34.185,12.596c38.021-114.074-18.649-200.952-88.704-243.407
			l71.813-20.833l-38.595-22.231L330.928,98.419L330.928,98.419z"/>
	</g>
	<circle fill="#FFFFFF" cx="290" cy="290" r="85.602"/>
</g>
</svg>
