<?xml version="1.0" encoding="utf-8"?>
<!-- Generator: Adobe Illustrator 15.0.0, SVG Export Plug-In . SVG Version: 6.00 Build 0)  -->
<!DOCTYPE svg PUBLIC "-//W3C//DTD SVG 1.1//EN" "http://www.w3.org/Graphics/SVG/1.1/DTD/svg11.dtd">
<svg version="1.1" xmlns="http://www.w3.org/2000/svg" xmlns:xlink="http://www.w3.org/1999/xlink" x="0px" y="0px" width="580px"
	 height="580px" viewBox="0 0 580 580" enable-background="new 0 0 580 580" xml:space="preserve">
<g id="Layer_2">
	<g id="g1327">
		<path id="path1329" fill="#111111" stroke="#EEEEEE" stroke-width="3.408" d="M66.275,1.768
			c-41.335,0-64.571,21.371-64.571,65.036v450.123c0,40.844,20.894,62.229,62.192,62.229H515.92
			c41.307,0,62.229-20.316,62.229-62.229V66.804c0-42.601-20.923-65.036-63.522-65.036C514.624,1.768,66.133,1.625,66.275,1.768z"/>
	</g>
</g>
<g id="svg2" inkscape:output_extension="org.inkscape.output.svg.inkscape" inkscape:version="0.46" sodipodi:docname="waste_bin.svg" sodipodi:version="0.32" xmlns:inkscape="http://www.inkscape.org/namespaces/inkscape" xmlns:rdf="http://www.w3.org/1999/02/22-rdf-syntax-ns#" xmlns:svg="http://www.w3.org/2000/svg" xmlns:sodipodi="http://sodipodi.sourceforge.net/DTD/sodipodi-0.dtd" xmlns:cc="http://creativecommons.org/ns#" xmlns:dc="http://purl.org/dc/elements/1.1/">
	<g>
		
			<circle id="circle2531" sodipodi:ry="33" sodipodi:rx="33" sodipodi:cy="496.92999" sodipodi:cx="123.427" fill="#FFFFFF" cx="124.5" cy="496.586" r="33">
		</circle>
		
			<circle id="circle2533" sodipodi:ry="59" sodipodi:rx="59" sodipodi:cy="470.92999" sodipodi:cx="428.427" fill="#FFFFFF" cx="429.5" cy="470.586" r="59">
		</circle>
		<path id="path2535" inkscape:connector-curvature="0" fill="#FFFFFF" d="M416.438,389.836l-0.322,0.049l-301.628,51.934
			C88,446.682,68.83,469.709,68.83,496.588c0,30.695,24.975,55.67,55.671,55.67h305c45.033,0,81.67-36.637,81.67-81.67
			s-36.637-81.67-81.67-81.67C422.92,388.916,417.465,389.682,416.438,389.836L416.438,389.836z M418.506,403.68
			c0.523-0.078,5.285-0.764,10.994-0.764c37.313,0,67.67,30.355,67.67,67.67c0,18.043-7.047,35.027-19.844,47.824
			c-12.799,12.797-29.783,19.846-47.826,19.846h-305c-22.977,0-41.67-18.693-41.67-41.67c0-20.119,14.346-37.355,34.108-40.984
			c0,0,301.33-51.881,301.48-51.906C418.461,403.688,418.506,403.68,418.506,403.68L418.506,403.68z"/>
		<path id="path2537" inkscape:connector-curvature="0" fill="#FFFFFF" d="M272.851,126.929
			c-3.729-9.387-14.31-13.998-23.715-10.393l-45.53,18.081c-0.961,0.212-1.919,0.48-2.864,0.856
			c-4.792,1.904-8.334,5.596-10.182,10.003c-1.934,4.367-2.188,9.476-0.284,14.265c0.375,0.944,0.836,1.824,1.342,2.668
			l18.103,45.524c3.833,9.315,14.448,13.845,23.834,10.115s13.998-14.312,10.391-23.715l-12.38-31.177l31.171-12.394
			C272.051,146.931,276.581,136.316,272.851,126.929L272.851,126.929z"/>
		<path id="path2539" inkscape:connector-curvature="0" fill="#FFFFFF" d="M352.336,326.229c-0.584-1.016-1.26-1.943-1.977-2.824
			l-28.248-48.959c-5.926-9.997-18.801-13.4-28.895-7.58c-10.095,5.819-13.598,18.669-7.915,28.805l19.325,33.533l-33.523,19.34
			c-9.996,5.928-13.4,18.801-7.579,28.896c5.82,10.096,18.668,13.6,28.805,7.914l48.977-28.225c1.061-0.402,2.107-0.867,3.123-1.453
			c5.15-2.971,8.58-7.773,9.957-13.109C355.869,337.258,355.307,331.383,352.336,326.229L352.336,326.229z"/>
		
			<circle id="circle2541" sodipodi:ry="44" sodipodi:rx="44" sodipodi:cy="72.086998" sodipodi:cx="336.24799" fill="#FFFFFF" cx="337.32" cy="71.743" r="44">
		</circle>
		<path id="path2543" inkscape:connector-curvature="0" fill="#FFFFFF" d="M403.553,163.948c-4.766-8.511-15.484-11.582-24.031-6.93
			l-28.273,15.821l-20.547-36.694c-1.447-6.397-5.807-12.042-12.293-14.839c-10.699-4.615-23.094,0.255-27.824,10.87
			L179.587,389.518c-4.65,10.783,0.32,23.291,11.103,27.941c10.782,4.648,23.291-0.32,27.941-11.104l96.837-224.574l12.012,21.468
			c0.324,0.892,0.703,1.773,1.182,2.63c2.436,4.347,6.422,7.269,10.877,8.477c4.428,1.295,9.352,0.887,13.693-1.545
			c0.855-0.479,1.639-1.033,2.383-1.624l41.287-23.13C405.334,183.203,408.32,172.461,403.553,163.948L403.553,163.948z"/>
	</g>
</g>
</svg>
