<?xml version="1.0" encoding="utf-8"?>
<!-- Generator: Adobe Illustrator 15.0.0, SVG Export Plug-In . SVG Version: 6.00 Build 0)  -->
<!DOCTYPE svg PUBLIC "-//W3C//DTD SVG 1.1//EN" "http://www.w3.org/Graphics/SVG/1.1/DTD/svg11.dtd">
<svg version="1.1" xmlns="http://www.w3.org/2000/svg" xmlns:xlink="http://www.w3.org/1999/xlink" x="0px" y="0px" width="580px"
	 height="580px" viewBox="0 0 580 580" enable-background="new 0 0 580 580" xml:space="preserve">
<g id="Layer_2">
	<g id="g1327">
		<path id="path1329" fill="#111111" stroke="#EEEEEE" stroke-width="3.408" d="M66.275,1.768
			c-41.335,0-64.571,21.371-64.571,65.036v450.123c0,40.844,20.894,62.229,62.192,62.229H515.92
			c41.307,0,62.229-20.316,62.229-62.229V66.804c0-42.601-20.923-65.036-63.522-65.036C514.624,1.768,66.133,1.625,66.275,1.768z"/>
	</g>
</g>
<g id="svg2" inkscape:output_extension="org.inkscape.output.svg.inkscape" inkscape:version="0.46" sodipodi:docname="waste_bin.svg" sodipodi:version="0.32" xmlns:inkscape="http://www.inkscape.org/namespaces/inkscape" xmlns:rdf="http://www.w3.org/1999/02/22-rdf-syntax-ns#" xmlns:svg="http://www.w3.org/2000/svg" xmlns:sodipodi="http://sodipodi.sourceforge.net/DTD/sodipodi-0.dtd" xmlns:cc="http://creativecommons.org/ns#" xmlns:dc="http://purl.org/dc/elements/1.1/">
	<g>
		<path id="flowRoot3192" fill="#FFFFFF" d="M506.461,514.984H115.239v16.457h391.222c10.971,0,20.373-3.917,28.207-11.751
			s11.752-17.236,11.752-28.208h-15.865c0,6.657-2.35,12.238-7.045,16.744C518.813,512.731,513.129,514.984,506.461,514.984
			L506.461,514.984z M413.652,127.276c10.576,0,19.781-3.818,27.617-11.455c7.832-7.637,11.75-16.936,11.75-27.895
			c0-10.972-3.918-20.275-11.75-27.913c-7.836-7.636-17.041-11.455-27.617-11.455c-10.961,0-20.258,3.819-27.895,11.455
			c-7.637,7.638-11.457,16.941-11.455,27.913c-0.002,10.959,3.818,20.258,11.455,27.895S402.691,127.276,413.652,127.276
			L413.652,127.276z M155.18,479.74c4.313,3.92,9.603,5.88,15.865,5.88c7.051,0,14.49-2.743,22.319-8.229l-11.742-12.334
			c-3.526,2.343-6.854,3.514-9.985,3.514c-3.132,0-5.486-0.782-7.063-2.348L164,465.649L33.581,334.639v22.911L155.18,479.74z
			 M168.105,218.328H34.764v15.865h133.341V218.328z M393.682,492.074l152.146-305.46l-15.273-6.472L376.65,492.074H393.682z
			 M87.63,312.319c-7.445,0-13.714,2.352-18.806,7.055c-5.091,4.703-7.637,10.771-7.637,18.205c0,7.051,2.546,13.023,7.637,17.918
			c5.092,4.894,11.163,7.341,18.214,7.341h106.326c4.313,0,8.228-0.389,11.742-1.165c9.011-1.565,15.279-4.309,18.805-8.229
			l52.275-58.156l61.096,58.748l-24.668,109.839c-0.789,2.354-1.184,4.314-1.184,5.88c0,7.051,2.545,13.122,7.637,18.214
			c5.092,5.091,11.162,7.637,18.215,7.637c13.313,0,21.541-6.854,24.686-20.563l29.955-133.341
			c3.525-14.103,1.961-24.482-4.697-31.14l-53.457-53.459l58.154-67.549l37.594,37.593c3.92,3.908,8.426,5.862,13.518,5.862
			c6.656,0,13.115-2.934,19.379-8.802l61.096-61.096c3.131-3.92,4.695-8.229,4.697-12.926c-0.002-5.867-2.057-10.762-6.168-14.682
			s-8.91-5.88-14.395-5.88c-5.486,0-9.795,1.565-12.926,4.696l-50.52,50.536l-61.096-61.095c-4.697-4.709-10.57-7.063-17.621-7.063
			h-95.749c-5.881,0-10.972,2.354-15.274,7.063l-65.792,75.777c-4.697,3.908-7.046,8.803-7.045,14.683
			c-0.001,5.485,1.956,10.186,5.871,14.1c3.913,3.914,8.613,5.871,14.1,5.871c5.867,0,10.959-2.349,15.273-7.046l61.096-71.08
			l35.245,0.591L178.682,312.911L87.63,312.319z"/>
	</g>
</g>
</svg>
