<?xml version="1.0" encoding="utf-8"?>
<!-- Generator: Adobe Illustrator 15.0.0, SVG Export Plug-In . SVG Version: 6.00 Build 0)  -->
<!DOCTYPE svg PUBLIC "-//W3C//DTD SVG 1.1//EN" "http://www.w3.org/Graphics/SVG/1.1/DTD/svg11.dtd">
<svg version="1.1" xmlns="http://www.w3.org/2000/svg" xmlns:xlink="http://www.w3.org/1999/xlink" x="0px" y="0px" width="580px"
	 height="580px" viewBox="0 0 580 580" enable-background="new 0 0 580 580" xml:space="preserve">
<g id="Layer_2">
	<g id="g1327">
		<path id="path1329" fill="#111111" stroke="#EEEEEE" stroke-width="3.408" d="M66.275,1.768
			c-41.335,0-64.571,21.371-64.571,65.036v450.123c0,40.844,20.894,62.229,62.192,62.229H515.92
			c41.307,0,62.229-20.316,62.229-62.229V66.804c0-42.601-20.923-65.036-63.522-65.036C514.624,1.768,66.133,1.625,66.275,1.768z"/>
	</g>
</g>
<g id="svg2" inkscape:output_extension="org.inkscape.output.svg.inkscape" inkscape:version="0.46" sodipodi:docname="waste_bin.svg" sodipodi:version="0.32" xmlns:inkscape="http://www.inkscape.org/namespaces/inkscape" xmlns:rdf="http://www.w3.org/1999/02/22-rdf-syntax-ns#" xmlns:svg="http://www.w3.org/2000/svg" xmlns:sodipodi="http://sodipodi.sourceforge.net/DTD/sodipodi-0.dtd" xmlns:cc="http://creativecommons.org/ns#" xmlns:dc="http://purl.org/dc/elements/1.1/">
	<g>
		<path id="flowRoot3192" fill="#FFFFFF" d="M486.794,225.086c10.959,0,20.258-3.818,27.895-11.455s11.455-16.936,11.456-27.895
			c-0.001-10.972-3.819-20.275-11.456-27.913c-7.637-7.636-16.936-11.455-27.895-11.455c-10.577,0-19.782,3.819-27.616,11.455
			c-7.835,7.638-11.752,16.941-11.751,27.913c-0.001,10.959,3.916,20.258,11.751,27.895
			C467.012,221.268,476.217,225.086,486.794,225.086L486.794,225.086z M522.631,494.136l-14.109-8.229
			c-4.697,7.828-11.551,11.742-20.562,11.742c-4.304,0-8.415-1.172-12.334-3.514L62.084,250.937l-8.229,14.091l413.56,243.198
			c6.263,3.526,13.11,5.289,20.545,5.289C503.233,513.515,514.79,507.055,522.631,494.136L522.631,494.136z M191.895,305.561
			c2.354,0.395,5.683-0.191,9.985-1.757l113.389-37.002c10.959-3.92,17.027-9.991,18.204-18.214
			c1.177-8.222,1.568-12.728,1.175-13.517l-17.031-61.687l68.141,40.532l8.229,59.339c1.565,10.577,6.065,18.017,13.499,22.319
			l88.704,51.702c3.131,1.96,6.262,2.939,9.394,2.939c5.88,0,10.776-2.059,14.691-6.176c3.913-4.117,5.87-8.912,5.871-14.387
			c-0.001-7.84-3.521-13.714-10.56-17.622l-70.507-41.125l-7.637-105.733c-1.172-14.103-7.237-24.285-18.196-30.548l-101.629-59.93
			c-9.405-5.474-19.2-8.211-29.382-8.211c-18.405,0-32.699,7.44-42.882,22.319c-5.868,9.012-8.803,18.8-8.802,29.364
			c-0.001,4.697,0.585,9.4,1.757,14.108l27.607,89.868l-82.823,26.442c-11.748,3.526-18.405,12.144-19.971,25.852
			C160.767,292.845,170.357,303.219,191.895,305.561L191.895,305.561z"/>
	</g>
</g>
</svg>
