<?xml version="1.0" encoding="utf-8"?>
<!-- Generator: Adobe Illustrator 15.0.0, SVG Export Plug-In . SVG Version: 6.00 Build 0)  -->
<!DOCTYPE svg PUBLIC "-//W3C//DTD SVG 1.1//EN" "http://www.w3.org/Graphics/SVG/1.1/DTD/svg11.dtd">
<svg version="1.1" xmlns="http://www.w3.org/2000/svg" xmlns:xlink="http://www.w3.org/1999/xlink" x="0px" y="0px" width="580px"
	 height="580px" viewBox="0 0 580 580" enable-background="new 0 0 580 580" xml:space="preserve">
<g id="Layer_2">
	<g id="g1327">
		<path id="path1329" fill="#111111" stroke="#EEEEEE" stroke-width="3.408" d="M66.275,1.768
			c-41.335,0-64.571,21.371-64.571,65.036v450.123c0,40.844,20.895,62.229,62.192,62.229H515.92
			c41.307,0,62.229-20.315,62.229-62.229V66.804c0-42.601-20.923-65.036-63.521-65.036C514.624,1.768,66.133,1.625,66.275,1.768z"/>
	</g>
</g>
<g id="Layer_4">
	<g>
		<path fill="#FFFFFF" d="M465.097,381.63c-10.333,0-20.189,2.058-29.203,5.762c-0.617-2.134-1.239-4.287-1.864-6.447
			c-3.464-11.971-6.992-24.125-9.964-34.057c-2.928-9.783-5.637-15.809-6.524-20.145c-0.691-3.379,3.589-3.088,8.1-6.848
			c3.406-2.838,6.296-7.634,7.181-12.515c0.736-4.292-0.176-8.604-2.172-12.136c-6.935-10.594-13.7-10.395-22.651-10.395
			c-11.77,0-31.195,0-31.195,0.001l0.074,19.114l29.928,0.062c3.571,0.007,5.424,5.028-1.558,6.981
			c-3.058,0.846-6.465,4.488-7.604,9.002c-1.141,4.512-0.288,9.014,1.379,13.183c0.384,0.959,1.134,3.904,2.232,8.027l-135.87,0.688
			l-8.024-19.642c9.058-2.071,29.844-7.056,32.723-9.796c3.418-3.112,0-7.797-2.647-7.797h-70.912
			c0.876,15.641,13.136,19.041,19.77,20.071l7.84,19.191c-0.843,0.692-1.563,1.546-2.098,2.539l-22.646,42.057
			c-8.939-3.634-18.701-5.654-28.93-5.654c-42.503,0-77.082,34.579-77.082,77.082s34.579,77.082,77.082,77.082
			c40.045,0,73.043-30.699,76.728-69.797h2.475c2.55,8.743,9.009,15.984,17.504,19.964l-2.601,6.053l-13.433,0.123
			c-2.878,0.026-5.19,2.381-5.164,5.26c0.026,2.862,2.354,5.164,5.211,5.164c0.016,0,0.033,0,0.049,0l30.152-0.276
			c2.878-0.026,5.19-2.381,5.164-5.26c-0.026-2.862-2.354-5.164-5.211-5.164c-0.016,0-0.032,0-0.049,0l-8.566,0.078l1.525-3.55
			c2.549,0.579,5.206,0.894,7.942,0.894c18.594,0,33.721-14.181,33.721-31.611c0-3.844-0.737-7.528-2.084-10.938l82.198-55.777
			c0.563,1.948,1.12,3.883,1.671,5.793c-18.046,14.121-29.679,36.078-29.679,60.716c0,42.503,34.579,77.081,77.082,77.081
			s77.082-34.578,77.082-77.081S507.6,381.63,465.097,381.63z M406.131,358.264c1.544,5.217,3.2,10.872,4.897,16.702L323.441,434.4
			c-1.343-1.024-2.772-1.95-4.273-2.774l2.682-6.24l13.491-0.124c2.879-0.026,5.19-2.381,5.164-5.26
			c-0.026-2.862-2.354-5.164-5.211-5.164c-0.017,0-0.032,0-0.049,0l-30.152,0.276c-2.879,0.026-5.19,2.381-5.164,5.26
			c0.026,2.862,2.354,5.164,5.211,5.164c0.016,0,0.032,0,0.049,0l8.508-0.078l-1.416,3.297c-3.188-0.939-6.578-1.448-10.093-1.448
			c-0.636,0-1.268,0.021-1.895,0.053l-27.952-68.422L406.131,358.264z M252.18,363.634l28.873,70.68
			c-5.327,4.028-9.32,9.543-11.265,15.865h-2.889c-2.815-22.118-15.028-41.332-32.51-53.505L252.18,363.634z M240.591,450.179
			h-35.013l16.368-30.397C231.417,427.219,238.204,437.918,240.591,450.179z M190.46,511.042c-28.167,0-51.082-22.915-51.082-51.082
			s22.916-51.082,51.082-51.082c5.771,0,11.316,0.977,16.494,2.748l-23.175,43.04c-1.424,2.645-1.353,5.843,0.187,8.422
			c1.54,2.578,4.323,4.157,7.326,4.157h49.722C237.466,491.973,216.152,511.042,190.46,511.042z M465.097,509.793
			c-28.167,0-51.082-22.915-51.082-51.081c0-12.412,4.453-23.8,11.841-32.661c0.592,1.982,1.133,3.771,1.608,5.328
			c0.944,3.095,1.424,4.829,2.223,6.796l0.332,0.817l0.485,0.741c0.347,0.556,3.758,10.154,12.979,18.063l0.077,0.051l0.051,0.077
			c6.627,5.488,12.342,7.457,15.951,8.603c3.803,1.169,9.005,0.569,11.523-3.338c1.998-2.866,0.239-8.669-3.546-11.419
			c-1.49-1.041-5.784-4.45-11.058-9.066c-4.703-4.199-5.085-7.413-7.889-12.347c0.071,0.159-0.705-2.077-1.584-4.957
			c-0.902-2.955-2.078-6.901-3.424-11.497c-0.128-0.436-0.259-0.883-0.39-1.331c6.642-3.165,14.067-4.942,21.901-4.942
			c28.167,0,51.082,22.915,51.082,51.082C516.179,486.878,493.264,509.793,465.097,509.793z"/>
		<path fill="#FFFFFF" d="M290.123,229.788c20.017-21.782,30.024-48.4,30.024-79.854c0-18.333-3.743-35.153-11.228-50.46
			c-7.485-15.307-17.367-27.206-29.646-35.701c-12.279-8.493-27.501-14.255-45.667-17.282c-12.952-2.354-31.707-3.532-56.264-3.532
			H37.821v369.875h48.946V262.46h94.866C233.944,262.461,270.107,251.57,290.123,229.788z M86.768,86.606h94.614
			c22.202,0,37.424,1.093,45.667,3.279c12.783,3.533,23.085,10.808,30.907,21.824c7.821,11.018,11.731,24.264,11.732,39.737
			c0,21.362-6.644,37.93-19.932,49.704s-35.743,17.661-67.365,17.661H86.768V86.606z"/>
	</g>
</g>
</svg>
