<?xml version="1.0" encoding="utf-8"?>
<!-- Generator: Adobe Illustrator 15.0.0, SVG Export Plug-In . SVG Version: 6.00 Build 0)  -->
<!DOCTYPE svg PUBLIC "-//W3C//DTD SVG 1.1//EN" "http://www.w3.org/Graphics/SVG/1.1/DTD/svg11.dtd">
<svg version="1.1" xmlns="http://www.w3.org/2000/svg" xmlns:xlink="http://www.w3.org/1999/xlink" x="0px" y="0px" width="580px"
	 height="580px" viewBox="0 0 580 580" enable-background="new 0 0 580 580" xml:space="preserve">
<g id="Layer_2">
	<g id="g1327">
		<path id="path1329" fill="#111111" stroke="#EEEEEE" stroke-width="3.408" d="M66.275,1.768
			c-41.335,0-64.571,21.371-64.571,65.036v450.123c0,40.844,20.895,62.229,62.192,62.229H515.92
			c41.307,0,62.229-20.315,62.229-62.229V66.804c0-42.601-20.923-65.036-63.521-65.036C514.624,1.768,66.133,1.625,66.275,1.768z"/>
	</g>
</g>
<g id="Layer_4">
	<path fill="#FFFFFF" d="M492.779,154.601c-11.798-12.039-26.258-18.403-41.817-18.403c-15.32,0-31.313,4.62-45.704,10.678
		c-1.149-16.095-2.424-26.081-2.544-27.001c-0.604-4.64-4.558-8.108-9.232-8.108c-0.014,0-0.026,0-0.039,0l-162.288,0.669
		l-162.364-0.669c-0.013,0-0.026,0-0.039,0c-4.675,0-8.629,3.469-9.233,8.109c-0.277,2.13-6.748,52.882-3.494,115.626
		c4.421,85.247,24.077,148.298,58.42,187.398c26.255,29.893,60.775,45.049,102.6,45.049l0.385-0.001
		c4.602,0.247,9.26,0.331,13.686,0.263c1.012,0.016,2.035,0.024,3.07,0.024c3.496,0,7.067-0.097,10.617-0.287l0.384,0.001
		c41.839,0,76.368-15.161,102.626-45.062c5.28-6.013,10.21-12.597,14.794-19.734c25.595-2.137,48.771-7.71,69.094-16.667
		c22.597-9.959,41.745-24.062,56.915-41.915c32.663-38.44,35.997-80.544,36.241-92.532
		C525.5,220.488,515.829,178.124,492.779,154.601z M479.241,251.11c-0.118,5.821-1.899,36.266-25.394,63.916
		c-16.351,19.243-39.116,32.16-67.953,38.635c11.139-32.769,17.947-72.241,20.325-118.17c0.705-13.629,0.952-26.69,0.903-38.813
		c14.576-7.955,31.37-14.854,43.839-14.854c2.147,0,5.138,0.535,9.228,4.71C471.377,197.951,479.745,226.316,479.241,251.11z"/>
</g>
</svg>
