<?xml version="1.0" encoding="utf-8"?>
<!-- Generator: Adobe Illustrator 15.0.0, SVG Export Plug-In . SVG Version: 6.00 Build 0)  -->
<!DOCTYPE svg PUBLIC "-//W3C//DTD SVG 1.1//EN" "http://www.w3.org/Graphics/SVG/1.1/DTD/svg11.dtd">
<svg version="1.1" id="Layer_1" xmlns="http://www.w3.org/2000/svg" xmlns:xlink="http://www.w3.org/1999/xlink" x="0px" y="0px"
	 width="580px" height="580px" viewBox="0 0 580 580" enable-background="new 0 0 580 580" xml:space="preserve">
<g id="Layer_1_1_">
	<g id="Layer_2">
		<g id="g1327">
			<path id="path1329" fill="#111111" stroke="#EEEEEE" stroke-width="3.408" d="M66.275,1.768
				c-41.335,0-64.571,21.371-64.571,65.036v450.123c0,40.844,20.895,62.229,62.192,62.229H515.92
				c41.307,0,62.229-20.315,62.229-62.229V66.804c0-42.601-20.925-65.036-63.521-65.036C514.624,1.768,66.133,1.625,66.275,1.768z"
				/>
		</g>
	</g>
</g>
<path opacity="0.5" fill="#FFFFFF" enable-background="new    " d="M501.969,375.568c-21.056-15.08-45.249-26.986-70.54-28.877
	C355,340.977,345,393.119,268.571,395.262c-76.428,2.146-77.143-37.854-142.857-31.428c-9.684,0.947-19.116,3.548-28.167,7.277
	c-52.364,21.586-91.833,81.295-91.833,81.295l568.572-2.857C574.286,449.549,544.544,406.063,501.969,375.568z"/>
<g>
	<path fill="#FFFFFF" d="M517.139,295.416h-11.425V175.263H400v120.153H85.7c-4.785,0-9.475-0.361-14.094-1.051
		c1.356,29.18,10.864,55.762,25.94,76.746c9.051-3.729,18.483-6.33,28.167-7.277c65.716-6.428,66.431,33.572,142.858,31.428
		C345,393.119,355,340.977,431.429,346.691c25.291,1.891,49.484,13.797,70.54,28.877c17.015-21.616,27.841-49.916,29.295-81.203
		C526.645,295.055,521.924,295.416,517.139,295.416z M434.287,223.834h42.855v45.715h-42.855V223.834z"/>
	<circle fill="#FFFFFF" cx="325.244" cy="90.805" r="17.49"/>
	<path fill="#FFFFFF" d="M316.5,153.895l0.313,39.353l34.979,0.313V143.9l14.68,13.118v35.292
		c16.658-7.808,15.199-6.246,15.305-27.171c0.313-17.386,1.873-17.594-19.678-33.419c-17.49-13.742-17.801-16.553-28.107-16.865
		c-17.699,0.521-13.223,2.603-60.592,76.519C289.64,195.745,287.766,198.244,316.5,153.895z"/>
	<path fill="#FFFFFF" d="M333.365,207.927l47.16,84.639c10.932-20.092,10.619-17.697-8.432-52.782
		c-18.115-34.043-20.613-33.419-20.613-41.227h-34.045c-0.832,6.976-1.977,7.079-23.111,45.286l-24.674,46.225
		C294.324,291.733,288.703,294.336,333.365,207.927z"/>
	<circle fill="#FFFFFF" cx="163.975" cy="86.709" r="17.845"/>
	<path fill="#FFFFFF" d="M155.052,151.079l0.319,40.152l35.69,0.318v-50.668l14.977,13.384v36.009
		c16.996-7.966,15.508-6.373,15.615-27.724c0.318-17.739,1.912-17.951-20.076-34.097c-17.845-14.021-18.164-16.889-28.68-17.208
		c-18.058,0.531-13.49,2.655-61.821,78.073C127.647,193.78,125.735,196.329,155.052,151.079z"/>
	<path fill="#FFFFFF" d="M172.26,206.208l48.118,86.357c11.153-20.5,10.834-18.057-8.604-53.854
		c-18.482-34.734-21.032-34.098-21.032-42.064h-34.734c-0.85,7.117-2.018,7.224-23.581,46.207l-25.174,47.162
		C132.427,291.716,126.691,294.372,172.26,206.208z"/>
</g>
</svg>
