<?xml version="1.0" encoding="utf-8"?>
<!-- Generator: Adobe Illustrator 15.0.0, SVG Export Plug-In . SVG Version: 6.00 Build 0)  -->
<!DOCTYPE svg PUBLIC "-//W3C//DTD SVG 1.1//EN" "http://www.w3.org/Graphics/SVG/1.1/DTD/svg11.dtd">
<svg version="1.1" xmlns="http://www.w3.org/2000/svg" xmlns:xlink="http://www.w3.org/1999/xlink" x="0px" y="0px" width="580px"
	 height="580px" viewBox="0 0 580 580" enable-background="new 0 0 580 580" xml:space="preserve">
<g id="Layer_1">
	<g id="Layer_2">
		<g id="g1327">
			<path id="path1329" fill="#111111" stroke="#EEEEEE" stroke-width="3.408" d="M66.275,1.768
				c-41.335,0-64.571,21.371-64.571,65.036v450.123c0,40.844,20.895,62.229,62.192,62.229H515.92
				c41.307,0,62.229-20.315,62.229-62.229V66.804c0-42.601-20.924-65.036-63.521-65.036C514.624,1.768,66.133,1.625,66.275,1.768z"
				/>
		</g>
	</g>
</g>
<g id="Layer_3">
	<g>
		<path fill="#FFFFFF" d="M400,175.263v162.856h105.714V175.263H400z M477.143,269.549h-42.856v-45.715h42.856V269.549z"/>
		<path fill="#FFFFFF" d="M268.571,395.262C345,393.119,355,340.977,431.429,346.691c25.291,1.891,49.484,13.797,70.54,28.878
			c17.014-21.617,27.841-49.917,29.295-81.204c-4.619,0.689-9.34,1.051-14.125,1.051H85.7c-4.785,0-9.475-0.361-14.094-1.051
			c1.356,29.18,10.864,55.762,25.94,76.747c9.051-3.73,18.483-6.331,28.167-7.278C191.429,357.406,192.144,397.406,268.571,395.262z
			"/>
		<path opacity="0.5" fill="#FFFFFF" d="M501.969,375.569c-21.056-15.081-45.249-26.987-70.54-28.878
			C355,340.977,345,393.119,268.571,395.262c-76.428,2.145-77.143-37.855-142.857-31.428c-9.684,0.947-19.116,3.548-28.167,7.278
			c-52.364,21.585-91.833,81.294-91.833,81.294l568.572-2.857C574.286,449.549,544.544,406.063,501.969,375.569z"/>
		<path id="path25345" fill="#FFFFFF" d="M304.34,257.311c0,18.242,10.165,33.031,22.705,33.031s22.706-14.789,22.706-33.031
			c0-18.242-10.166-33.03-22.706-33.03S304.34,239.069,304.34,257.311L304.34,257.311z"/>
		<path id="path25343" fill="#FFFFFF" d="M106.073,257.297c0,18.242,10.166,33.031,22.706,33.031
			c12.539,0,22.705-14.789,22.705-33.031c0-18.242-10.166-33.03-22.705-33.03C116.239,224.268,106.073,239.056,106.073,257.297
			L106.073,257.297z"/>
		<path fill="#FFFFFF" d="M371.613,204.084l-80.29-19.403l-36.714-53.509c-1.209-2.036-2.587-3.786-5.13-3.559H139.637
			l-54.591,63.056c-0.602,1.852-0.907,3.271-1.06,4.47l-0.208,55.876c1.015,3.203,2.209,5.937,4.338,6.222h12.67
			c0-54.63,55.518-54.742,55.518,0h142.638c0-54.418,55.939-54.626,55.939,0h15.456c1.318-0.898,2.504-0.064,4.245-6.503
			l0.169-40.182C373.853,206.896,372.731,205.503,371.613,204.084z M192.85,192.558h-69.756c-3.301-0.958,1.043-7.436,3.204-12.173
			l23.447-34.351c0.617-0.763,1.103-1.813,2.175-1.582h40.93V192.558z M277.991,192.551H201.89v-48.105h48.65
			c1.072-0.23,1.558,0.819,2.175,1.582l27.36,39.274C281.28,188.368,280.888,190.888,277.991,192.551z"/>
	</g>
</g>
</svg>
