<?xml version="1.0" encoding="utf-8"?>
<!-- Generator: Adobe Illustrator 15.0.0, SVG Export Plug-In . SVG Version: 6.00 Build 0)  -->
<!DOCTYPE svg PUBLIC "-//W3C//DTD SVG 1.1//EN" "http://www.w3.org/Graphics/SVG/1.1/DTD/svg11.dtd">
<svg version="1.1" xmlns="http://www.w3.org/2000/svg" xmlns:xlink="http://www.w3.org/1999/xlink" x="0px" y="0px" width="580px"
	 height="580px" viewBox="0 0 580 580" enable-background="new 0 0 580 580" xml:space="preserve">
<g id="Layer_2">
	<g id="g1327">
		<path id="path1329" fill="#111111" stroke="#EEEEEE" stroke-width="3.408" d="M66.275,1.768
			c-41.335,0-64.571,21.371-64.571,65.036v450.123c0,40.844,20.895,62.229,62.192,62.229H515.92
			c41.307,0,62.229-20.315,62.229-62.229V66.804c0-42.601-20.923-65.036-63.521-65.036C514.624,1.768,66.133,1.625,66.275,1.768z"/>
	</g>
</g>
<g id="Layer_4">
	<g>
		<path fill="#FFFFFF" d="M272.615,247.804c0.312,0,0.568-12.272,0.568-27.271V193.26l-5.761,1.301
			c-10.499,0.46-32.455,12.597-31.944,14.862C235.796,210.845,271.205,247.804,272.615,247.804z"/>
		<path fill="#FFFFFF" d="M221.861,271.894c14.401,0,26.184-0.491,26.184-1.092c0-0.6-8.353-9.405-18.563-19.568l-18.563-18.478
			l-4.469,7.23c-5.019,8.122-8.24,16.896-11.004,31.96C196.828,272.142,199.091,271.894,221.861,271.894z"/>
		<path fill="#FFFFFF" d="M356.449,271.458c26.456-0.431,26.703-0.48,26.122-5.205c-0.338-2.755-1.96-11.193-5.348-18.746
			c-3.422-7.631-8.614-14.365-9.521-14.365c-1.515,0-37.962,36.159-37.962,37.661C329.74,271.403,341.759,271.698,356.449,271.458z"
			/>
		<path fill="#FFFFFF" d="M344.572,209.051l-13.993-8.75c-7.823-3.672-16.812-4.898-19.691-5.258l-5.236-0.655l-0.583,27.232
			l-0.581,27.232l20.043-19.9L344.572,209.051z"/>
		<path fill="#FFFFFF" d="M222.946,304.363h-27.737l1.42,7.569c1.625,8.659,11.83,30.461,13.873,29.638
			c0.748-0.302,10.094-8.798,20.769-18.879l19.41-18.328H222.946z"/>
		<path fill="#FFFFFF" d="M306.218,329.5c-0.888,0-1.614,11.9-1.614,26.446v26.447l11.185-2.051
			c3.744-0.748,12.881-4.2,20.303-7.672l9.118-5.622l-18.688-18.775C316.243,337.948,307.107,329.5,306.218,329.5z"/>
		<path fill="#FFFFFF" d="M328.781,304.363l18.765,18.854c10.321,10.368,19.542,18.852,20.49,18.852
			c0.949,0,6.25-7.273,9.529-14.474c3.277-7.201,4.703-13.151,5.419-16.32l1.3-6.911h-27.751H328.781z"/>
		<path fill="#FFFFFF" d="M459.812,438.671V214.53L374.906,67.47H205.095L120.188,214.53v224.141
			c-35.766,19.502-61.187,45.098-71.088,73.859h481.799C520.998,483.769,495.577,458.173,459.812,438.671z M425.968,304.178
			c-8.82,1.185-9.238,1.568-10.632,9.743c-2.185,12.806-10.752,32.414-20.317,46.5c-16.86,24.828-43.142,43.302-73.655,51.773
			l-15.712,4.362l-0.679,8.318c-0.372,4.573-2.168,9.966-3.99,11.98c-4.662,5.16-18.229,4.86-23.611-0.522
			c-2.746-2.746-4.189-6.981-4.189-12.296v-8.106l-12.154-2.391c-47.161-9.278-88.872-58.164-98.993-108.817
			c-3.087-0.24-4.794-0.359-8.056-0.359c-10.203,0-16.957-6.809-16.957-17.093c0-9.348,5.746-14.816,16.231-15.447l7.858-0.474
			l3.708-14.391c6.188-24.01,15.375-39.805,33.974-58.411c19.062-19.069,35.018-28.646,58.052-34.353
			c6.999-1.734,7.536-0.397,15.414-2.154c1.04-10.943,0.092-23.148,16.824-22.575c13.224,0.461,14.487,8.537,14.542,21.935
			c4.535,0.444,6.008,0.578,13.858,2.192c47.206,9.707,89.597,52.294,97.868,99.921c1.309,7.538,2.012,8.313,7.001,7.725
			c6.584-0.776,17.369,4.35,19.203,9.127C446.098,292.2,439.441,302.369,425.968,304.178z"/>
		<path fill="#FFFFFF" d="M273.183,355.685c0-14.401-0.729-26.185-1.617-26.185c-0.89,0-9.582,8.007-19.316,17.791
			c-9.797,9.849-15.329,15.896-17.385,18.864c2.534,1.854,6.984,6.858,18.119,11.436c9.33,3.835,17.02,4.935,20.539,5.466
			C272.94,378.68,273.183,372.116,273.183,355.685z"/>
		<path fill="#FFFFFF" d="M303.862,275.211c-8.329-9.131-19.148-9.186-28.39-0.479c-9.018,8.498-6.81,20.297-1.689,26.289
			c5.874,6.874,15.375,9.787,22.962,5.863c3.604-1.863,9.517-8.072,11.262-12.248C310.787,287.981,309.086,280.938,303.862,275.211z
			"/>
	</g>
</g>
</svg>
