<?xml version="1.0" encoding="utf-8"?>
<!-- Generator: Adobe Illustrator 15.0.0, SVG Export Plug-In . SVG Version: 6.00 Build 0)  -->
<!DOCTYPE svg PUBLIC "-//W3C//DTD SVG 1.1//EN" "http://www.w3.org/Graphics/SVG/1.1/DTD/svg11.dtd">
<svg version="1.1" xmlns="http://www.w3.org/2000/svg" xmlns:xlink="http://www.w3.org/1999/xlink" x="0px" y="0px" width="580px"
	 height="580px" viewBox="0 0 580 580" enable-background="new 0 0 580 580" xml:space="preserve">
<g id="Layer_2">
	<g id="g1327">
		<path id="path1329" fill="#111111" stroke="#EEEEEE" stroke-width="3.408" d="M66.275,1.768
			c-41.335,0-64.571,21.371-64.571,65.036v450.123c0,40.844,20.895,62.229,62.192,62.229H515.92
			c41.307,0,62.229-20.315,62.229-62.229V66.804c0-42.601-20.923-65.036-63.521-65.036C514.624,1.768,66.133,1.625,66.275,1.768z"/>
	</g>
</g>
<g id="Layer_4">
	<path fill="#FFFFFF" d="M459.812,438.671V214.53L374.906,67.47H205.095L120.188,214.53v224.141
		c-35.766,19.502-61.187,45.098-71.088,73.859h481.799C520.998,483.769,495.577,458.173,459.812,438.671z M413.599,278.812
		c0,3.527-2.857,6.386-6.385,6.388c-4.126,0.002-8.249,0.002-12.376,0.002l-34.737-0.006c-10.186,0-20.372,0.005-30.558,0.023
		c-0.467,0.033-0.956,0.05-1.484,0.05c-0.989,0-1.945-0.058-2.87-0.114c-0.813-0.049-1.58-0.094-2.262-0.094
		c-0.133,0-0.254,0.001-0.365,0.004c-0.156,33.739-0.131,68.008-0.106,101.18c0.017,21.009,0.032,42.734,0.002,64.101
		c-0.005,3.523-2.864,6.378-6.389,6.378h-55.072c-3.527,0-6.387-2.858-6.388-6.386c-0.005-20.251-0.002-40.502,0-60.752
		c0.004-31.894,0.009-64.867-0.02-97.303c-0.108-1.502-0.022-2.95,0.063-4.354c0.045-0.745,0.109-1.816,0.09-2.639
		c-8.927-0.077-18.518-0.112-30.609-0.112c-6.322,0-12.644,0.008-18.966,0.019c-10.797,0.016-21.601,0.032-32.396,0.001
		c-3.521-0.009-6.37-2.866-6.37-6.388v-49.184c0-3.519,2.846-6.375,6.364-6.387c9.722-0.036,19.443-0.017,29.168,0.001
		c5.69,0.012,11.381,0.022,17.07,0.022c12.033,0,21.308-0.05,30.073-0.163c0.216-0.001,0.433,0.006,0.648,0.025l0.878,0.082
		c1.091,0.104,2.218,0.212,3.235,0.212c0.303,0,0.558-0.01,0.771-0.025v-93.731c0-3.528,2.86-6.388,6.388-6.388h55.072
		c3.527,0,6.386,2.858,6.389,6.385c0.005,10.972,0.002,21.943-0.001,32.915c-0.003,17.562-0.009,35.719,0.021,53.578
		c0.108,1.502,0.021,2.951-0.063,4.355c-0.045,0.746-0.109,1.815-0.091,2.638c9.272,0.078,19.228,0.113,31.794,0.113
		c6.541,0,13.083-0.009,19.624-0.019c11.163-0.016,22.329-0.031,33.487-0.001c3.521,0.009,6.37,2.866,6.37,6.387V278.812z"/>
</g>
</svg>
