<?xml version="1.0" encoding="utf-8"?>
<!-- Generator: Adobe Illustrator 15.0.0, SVG Export Plug-In . SVG Version: 6.00 Build 0)  -->
<!DOCTYPE svg PUBLIC "-//W3C//DTD SVG 1.1//EN" "http://www.w3.org/Graphics/SVG/1.1/DTD/svg11.dtd">
<svg version="1.1" xmlns="http://www.w3.org/2000/svg" xmlns:xlink="http://www.w3.org/1999/xlink" x="0px" y="0px" width="580px"
	 height="580px" viewBox="0 0 580 580" enable-background="new 0 0 580 580" xml:space="preserve">
<g id="Layer_2">
	<g id="g1327">
		<path id="path1329" fill="#111111" stroke="#EEEEEE" stroke-width="3.408" d="M66.275,1.768
			c-41.335,0-64.571,21.371-64.571,65.036v450.123c0,40.844,20.895,62.229,62.192,62.229H515.92
			c41.307,0,62.229-20.315,62.229-62.229V66.804c0-42.601-20.923-65.036-63.521-65.036C514.624,1.768,66.133,1.625,66.275,1.768z"/>
	</g>
</g>
<g id="Layer_4">
	<g>
		<path fill="#FFFFFF" d="M239.253,96.704C132.668,96.704,45.956,183.416,45.956,290s86.712,193.296,193.297,193.296
			c106.584,0,193.296-86.712,193.296-193.296S345.837,96.704,239.253,96.704z M239.253,458.159
			c-92.723,0-168.159-75.437-168.159-168.159s75.436-168.158,168.159-168.158c92.723,0,168.159,75.436,168.159,168.158
			S331.976,458.159,239.253,458.159z"/>
		<polygon fill="#FFFFFF" points="275.397,143.48 203.108,143.48 203.108,253.855 92.732,253.855 92.732,326.145 203.108,326.145 
			203.108,436.52 275.397,436.52 275.397,326.145 385.772,326.145 385.772,253.855 275.397,253.855 		"/>
		<path fill="#FFFFFF" d="M474.789,225.743l12.313,163.425c3.591,0.567,6.284,0.852,8.08,0.852c1.282,0,3.206-0.189,5.771-0.568
			c1.026-2.647,1.668-4.729,1.924-6.241l3.078-68.094c0.514-18.726,5.771-59.487,15.776-122.285
			c5.13-32.723,7.695-53.435,7.695-62.136c0-9.457-3.463-16.786-10.389-21.988c-6.927-5.201-15.392-7.803-25.396-7.803
			c-9.234,0-17.059,2.602-23.472,7.803c-6.412,5.202-9.619,12.909-9.619,23.123c0,10.215,2.565,27.049,7.695,50.503
			C471.839,199.925,474.019,214.395,474.789,225.743z"/>
		<path fill="#FFFFFF" d="M523.078,428.464c-7.311-5.58-16.354-8.37-27.127-8.37c-11.287,0-20.842,2.885-28.666,8.653
			c-7.823,5.77-11.735,12.626-11.735,20.57c0,6.432,4.425,12.957,13.274,19.577c8.851,6.62,17.893,9.931,27.127,9.931
			c8.465,0,16.931-3.405,25.396-10.215c8.465-6.809,12.697-13.808,12.697-20.995S530.389,434.044,523.078,428.464z"/>
	</g>
</g>
</svg>
