<?xml version="1.0" encoding="utf-8"?>
<!-- Generator: Adobe Illustrator 15.0.0, SVG Export Plug-In . SVG Version: 6.00 Build 0)  -->
<!DOCTYPE svg PUBLIC "-//W3C//DTD SVG 1.1//EN" "http://www.w3.org/Graphics/SVG/1.1/DTD/svg11.dtd">
<svg version="1.1" id="Layer_1" xmlns="http://www.w3.org/2000/svg" xmlns:xlink="http://www.w3.org/1999/xlink" x="0px" y="0px"
	 width="580px" height="580px" viewBox="0 0 580 580" enable-background="new 0 0 580 580" xml:space="preserve">
<g id="Layer_1_1_">
	<g id="Layer_2">
		<g id="g1327">
			<path id="path1329" fill="#111111" stroke="#EEEEEE" stroke-width="3.408" d="M66.275,1.768
				c-41.335,0-64.571,21.371-64.571,65.036v450.123c0,40.844,20.895,62.229,62.192,62.229H515.92
				c41.307,0,62.229-20.315,62.229-62.229V66.804c0-42.601-20.925-65.036-63.521-65.036C514.624,1.768,66.133,1.625,66.275,1.768z"
				/>
		</g>
	</g>
</g>
<path fill="#FFFFFF" d="M285.691,118.153c-4.924-10.069-11.569-18.044-19.751-23.704c-8.05-5.568-18.064-9.383-29.763-11.338
	c-8.195-1.485-19.567-2.208-34.766-2.208h-83.659c-3.312,0-5.996,2.685-5.996,5.996v221.779c0,3.312,2.685,5.995,5.996,5.995h29.349
	c3.312,0,5.996-2.685,5.996-5.996v-84.167h50.886c33.431,0,56.153-7.042,69.465-21.53c12.995-14.14,19.583-31.615,19.585-51.938
	C293.031,139.18,290.563,128.114,285.691,118.153z M204.437,186.347h-51.339v-67.279h50.733c15.862,0.001,22.81,0.961,25.786,1.75
	c6.353,1.756,11.338,5.281,15.24,10.777c3.988,5.618,5.927,12.276,5.928,20.355c0,11.114-3.25,19.394-9.932,25.315
	C234.051,183.292,221.799,186.347,204.437,186.347z"/>
<g>
	<rect x="40.513" y="44.5" fill="#FFFFFF" width="42.619" height="306.577"/>
	<rect x="321.658" y="44.5" fill="#FFFFFF" width="42.617" height="306.577"/>
</g>
<g>
	<path fill="#FFFFFF" d="M486.169,480.445c-11.006,17.374-27.57,32.638-48.477,37.72c-27.887,7.588-59.147-7.967-71.503-32.761
		c-11.679-21.821-7.632-51.031,10.846-68.154c2.617-3.607,9.767-5.04,8.716-10.259c-0.707-6.015,1.948-15.143-2-18.678
		c-24.877,11.952-43.666,36.587-45.058,63.81c-2.87,24.01,7.902,48.291,26.548,64.012c13.038,11.328,30.129,18.393,54.566,21.022
		c27.169,1.814,54.057-10.973,70.84-31.36C500.576,499.129,490.77,484.015,486.169,480.445z"/>
	<path fill="#FFFFFF" d="M556.975,483.178c-4.736,0.294-13.78,7.104-26.241,8.561c-11.861-23.224-23.166-46.906-34.916-70.263
		c-20.437-0.015-53.89,0.041-74.386-0.053c0.03-0.773-3.147-8.346,0.874-17.338c18.149,0,36.299,0,54.447,0
		c0-5.779,0-11.557,0-17.336c-18.527-0.245-37.195,0.81-55.612-0.622c-0.83-13.129-0.528-26.324-0.201-39.472
		c4.566-6.209,18.102-8.948,17.508-20.207c2.206-14.251-14.507-26.387-28.054-20.989c-13.683,3.883-18.836,21.962-8.998,31.96
		c0.29,33.232,0.414,66.469,0.902,99.699c15.81,0.002,70.486-1.915,80.928,0.383c10.505,20.9,35.796,72.305,38.618,76.727
		c11.19-3.703,28.752-12.077,39.88-15.952C562.298,498.752,562.164,482.745,556.975,483.178z"/>
</g>
</svg>
