<?xml version="1.0" encoding="utf-8"?>
<!-- Generator: Adobe Illustrator 15.0.0, SVG Export Plug-In . SVG Version: 6.00 Build 0)  -->
<!DOCTYPE svg PUBLIC "-//W3C//DTD SVG 1.1//EN" "http://www.w3.org/Graphics/SVG/1.1/DTD/svg11.dtd">
<svg version="1.1" xmlns="http://www.w3.org/2000/svg" xmlns:xlink="http://www.w3.org/1999/xlink" x="0px" y="0px" width="580px"
	 height="580px" viewBox="0 0 580 580" enable-background="new 0 0 580 580" xml:space="preserve">
<g id="Layer_2">
	<g id="g1327">
		<path id="path1329" fill="#111111" stroke="#EEEEEE" stroke-width="3.408" d="M66.275,1.768
			c-41.335,0-64.571,21.371-64.571,65.036v450.123c0,40.844,20.894,62.229,62.192,62.229H515.92
			c41.307,0,62.229-20.316,62.229-62.229V66.804c0-42.601-20.923-65.036-63.522-65.036C514.624,1.768,66.133,1.625,66.275,1.768z"/>
	</g>
</g>
<g id="svg2" inkscape:output_extension="org.inkscape.output.svg.inkscape" inkscape:version="0.46" sodipodi:docname="waste_bin.svg" sodipodi:version="0.32" xmlns:dc="http://purl.org/dc/elements/1.1/" xmlns:cc="http://creativecommons.org/ns#" xmlns:sodipodi="http://sodipodi.sourceforge.net/DTD/sodipodi-0.dtd" xmlns:svg="http://www.w3.org/2000/svg" xmlns:rdf="http://www.w3.org/1999/02/22-rdf-syntax-ns#" xmlns:inkscape="http://www.inkscape.org/namespaces/inkscape">
	<g>
		<g>
			<path fill="#FFFFFF" d="M74.873,43.097c-10.314,0-30.236,26.138-30.236,50.016c0,19.216,8.771,35.495,20.897,41.123l-2.51,135.69
				h23.697l-2.51-135.69c12.127-5.627,20.897-21.906,20.897-41.123C105.108,69.235,85.188,43.097,74.873,43.097z"/>
		</g>
		<g>
			<path fill="#FFFFFF" d="M198.659,111.82l-3.151-65.34c0-1.249-1.013-2.261-2.262-2.261h-1.483c-1.249,0-2.261,1.012-2.261,2.261
				l1.05,65.34h-6.526l-1.653-65.977c0-1.248-1.013-2.26-2.261-2.26h-1.932c-1.248,0-2.26,1.012-2.26,2.26l0.893,65.977h-8.098
				l0.893-65.977c0-1.248-1.011-2.26-2.26-2.26h-1.931c-1.249,0-2.262,1.012-2.262,2.26l-1.653,65.977h-6.389l1.049-65.333
				c0-1.248-1.011-2.26-2.259-2.26h-1.485c-1.249,0-2.261,1.012-2.261,2.26l-3.277,65.333c0,19.216,4.418,26.453,16.545,32.08
				l-2.51,126.025h23.696L182.104,143.9C194.229,138.273,198.659,131.037,198.659,111.82z"/>
		</g>
	</g>
	<polygon fill="#FFFFFF" points="327.703,306.955 421.697,533.646 546.102,306.955 	"/>
	
		<line fill="none" stroke="#FFFFFF" stroke-width="15.6664" stroke-miterlimit="10" x1="380.229" y1="341.512" x2="337.38" y2="208.814"/>
	
		<line fill="none" stroke="#FFFFFF" stroke-width="15.6664" stroke-miterlimit="10" x1="389.905" y1="341.512" x2="428.609" y2="247.518"/>
	
		<line fill="none" stroke="#FFFFFF" stroke-width="15.6664" stroke-miterlimit="10" x1="446.579" y1="320.777" x2="478.37" y2="208.814"/>
	
		<line fill="none" stroke="#FFFFFF" stroke-width="15.6664" stroke-miterlimit="10" x1="389.905" y1="312.483" x2="389.905" y2="214.343"/>
	
		<line fill="none" stroke="#FFFFFF" stroke-width="15.6664" stroke-miterlimit="10" x1="508.779" y1="330.453" x2="499.104" y2="247.518"/>
	
		<line fill="none" stroke="#FFFFFF" stroke-width="15.6664" stroke-miterlimit="10" x1="370.855" y1="312.483" x2="319.41" y2="264.796"/>
	
		<line fill="none" stroke="#FFFFFF" stroke-width="15.6664" stroke-miterlimit="10" x1="508.779" y1="320.777" x2="546.102" y2="235.077"/>
	<g>
		<path fill="none" d="M28.421,333.453c-46.215,0-83.813,37.599-83.813,83.813s37.599,83.813,83.813,83.813
			c25.722,0,48.764-11.656,64.15-29.954c-19.33-10.766-36.021-25.704-48.846-43.604c15.039-20.989,35.39-37.908,59.084-48.798
			C88.832,351.856,60.744,333.453,28.421,333.453z"/>
		<path fill="#FFFFFF" d="M43.726,427.522c12.826,17.899,29.516,32.838,48.846,43.604c12.259-14.577,19.663-33.366,19.663-53.859
			c0-13.893-3.417-26.994-9.425-38.542C79.115,389.614,58.765,406.533,43.726,427.522z"/>
		<path fill="#FFFFFF" d="M283.867,424.59c-27.189-36.06-70.347-59.399-118.988-59.399c-20.019,0-39.104,3.961-56.536,11.126
			c6.321,12.286,9.892,26.209,9.892,40.95c0,21.497-7.595,41.252-20.238,56.729c20.11,10.136,42.822,15.858,66.882,15.858
			c48.763,0,92.012-23.46,119.191-59.671l43.633,59.671V350.748L283.867,424.59z"/>
	</g>
</g>
</svg>
