<?xml version="1.0" encoding="utf-8"?>
<!-- Generator: Adobe Illustrator 15.0.0, SVG Export Plug-In . SVG Version: 6.00 Build 0)  -->
<!DOCTYPE svg PUBLIC "-//W3C//DTD SVG 1.1//EN" "http://www.w3.org/Graphics/SVG/1.1/DTD/svg11.dtd">
<svg version="1.1" xmlns="http://www.w3.org/2000/svg" xmlns:xlink="http://www.w3.org/1999/xlink" x="0px" y="0px" width="580px"
	 height="580px" viewBox="0 0 580 580" enable-background="new 0 0 580 580" xml:space="preserve">
<g id="Layer_2">
	<g id="g1327">
		<path id="path1329" fill="#111111" stroke="#EEEEEE" stroke-width="3.408" d="M66.275,1.768
			c-41.335,0-64.571,21.371-64.571,65.036v450.123c0,40.844,20.894,62.229,62.192,62.229H515.92
			c41.307,0,62.229-20.316,62.229-62.229V66.804c0-42.601-20.923-65.036-63.522-65.036C514.624,1.768,66.133,1.625,66.275,1.768z"/>
	</g>
</g>
<g id="svg2" xmlns:dc="http://purl.org/dc/elements/1.1/" xmlns:cc="http://creativecommons.org/ns#" xmlns:sodipodi="http://sodipodi.sourceforge.net/DTD/sodipodi-0.dtd" xmlns:svg="http://www.w3.org/2000/svg" xmlns:rdf="http://www.w3.org/1999/02/22-rdf-syntax-ns#" xmlns:inkscape="http://www.inkscape.org/namespaces/inkscape" sodipodi:docname="waste_bin.svg" inkscape:version="0.46" sodipodi:version="0.32" inkscape:output_extension="org.inkscape.output.svg.inkscape">
	<g>
		<path fill="#FFFFFF" d="M74.873,43.097c-10.314,0-30.236,26.138-30.236,50.016c0,19.216,8.771,35.495,20.897,41.123l-2.51,135.69
			h23.697l-2.51-135.69c12.127-5.627,20.897-21.906,20.897-41.123C105.108,69.235,85.188,43.097,74.873,43.097z"/>
		<path fill="#FFFFFF" d="M198.659,111.82l-3.151-65.34c0-1.249-1.013-2.261-2.262-2.261h-1.483c-1.249,0-2.261,1.012-2.261,2.261
			l1.05,65.34h-6.526l-1.653-65.977c0-1.248-1.013-2.26-2.261-2.26h-1.932c-1.248,0-2.26,1.012-2.26,2.26l0.893,65.977h-8.098
			l0.893-65.977c0-1.248-1.011-2.26-2.26-2.26h-1.931c-1.249,0-2.262,1.012-2.262,2.26l-1.653,65.977h-6.389l1.049-65.333
			c0-1.248-1.011-2.26-2.259-2.26h-1.485c-1.249,0-2.261,1.012-2.261,2.26l-3.277,65.333c0,19.216,4.418,26.453,16.545,32.08
			l-2.51,126.025h23.696L182.104,143.9C194.229,138.273,198.659,131.037,198.659,111.82z"/>
	</g>
	<g>
		<path fill-rule="evenodd" clip-rule="evenodd" fill="#FFFFFF" d="M399.943,518.193c-3.466,0.461-4.321-1.686-7.509-1.502
			c3.588-2.902-3.323-2.535-0.751-6.006c3.666-0.564,3.63,5.396,7.509,2.252c-0.412-4.654-8.328-4.408-11.262-2.252
			c-4.682-7.582-10.422-14.104-15.016-21.773c-0.489-3.242,1.297-4.209,2.252-6.006c-1.807-0.945-3.989-1.516-5.255-3.004
			c1.845-6.322-0.987-13.002,1.501-18.018c-7.311-5.354,0.467-20.852-11.261-19.52c-6.102-5.898-0.703-18.746-6.758-24.775
			c0.842-9.154,3.092-19.07,3.003-27.779c-0.083-8.213-7.276-15.508-2.252-21.773c-0.334-1.918-1.053-3.451-2.252-4.504
			c4.833-10.529,1.639-25.975-0.751-36.037c4.301-8.742,2.316-20.918-0.751-30.031c-2.095-0.658-3.708-1.797-6.007-2.252
			c0-1.001,0-2.003,0-3.004c-3.135-3.871-9.618-4.396-12.762-8.258c-8.038-1.809-13.921-8.426-16.518-16.518
			c-2.233-6.958-9.048-14.138-11.262-20.271c-3.15-8.726-8.653-15.499-11.262-24.025c-2.963-0.791-6.319-1.188-8.258-3.003
			c-0.158-3.597,0.747-8.254-1.501-9.76c0.809-5.448,5.328-7.185,7.508-11.262c-1.235-1.268-4.074-0.932-5.256-2.252
			c-2.975-5.784-1.384-14.499,5.256-15.015c0.784-1.718,0.476-4.529,1.501-6.006c1.661-1.092,5-0.506,6.006-2.252
			c0.348-4.158,0.47-8.541,6.007-7.507c-0.585-11.521,5.273-21.955,0-31.533c6.396-2.113,6.325-10.692,13.514-12.013
			c-0.147-2.9-0.027-5.532,0.751-7.507c8.938-2.362,17.691-8.784,24.775-10.511c0.887,4.141-2.603,3.904-4.505,5.256
			c-0.077,2.33,2.362,2.143,1.502,5.255c2.317-2.188,3.518-5.492,9.01-4.505c0.963-3.308-3.593-3.076-1.502-5.255
			c4.19-0.938,3.416,3.09,4.505,5.255c2.746-0.164,2.88-1.031,5.255,0c0.894,1.609,0.811,4.195,2.253,5.255
			c5.893-1.656,13.904-0.911,16.517,3.003c3.988-2.743,11.955-7.907,17.268-4.505c-0.962,1.29-3.574,0.931-3.753,3.003
			c1.87,2.634,7.688,1.32,9.76,3.754c0.332,2.834-1.48,3.524-2.253,5.255c5.602,1.439,13.227,2.596,13.514,11.262
			c5.242,0.514,6.506,5.007,9.761,7.507c11.505-3.263,17.314,3.688,26.277,5.255c2.358,6.15,7.025,9.992,6.757,18.769
			c0.684,1.819,3.018,1.988,5.255,2.253c-2.879,8.132-7.701,14.321-13.514,19.52c3.224,2.685,5.316-2.162,8.259-2.252
			c-0.864-2.103-0.864-3.903,0-6.006c5.946,0.346,9.137-1.165,13.514,0.751c-0.688,5.318-4.644,7.369-7.508,10.511
			c4.917,1.501,6.881-6.014,10.511-8.259c7.706,2.103,19.41,4.048,18.019,12.763c7.573-4.421,15.152,4.97,23.274,0
			c9.719,3.545,10.57,15.958,24.775,15.016c8.977,9.981,4.012,30.98-6.757,36.037c-1.646,6.861-5.109,11.908-10.511,15.015
			c0.318,6.622,0.12,13.831,2.252,20.271c-4.027,2.553,0.138,8.998-3.754,12.013c-0.401,2.905,1.34,3.665,0.751,6.757
			c-5.728,6.285-6.863,17.162-13.514,22.523c-9.106-2.682-12.604,3.504-17.269,6.006c-1.362,0.732-3.982,0.133-5.255,0.752
			c-5.107,2.477-7.454,8.16-10.511,11.26c-0.247,5.461,4.018,10.076,1.501,15.768c-1.338,3.027-5.414,5.682-6.756,9.76
			c-1.731,5.254-1.819,12.09-7.509,12.764c-1.49,8.52-5.336,14.684-11.261,18.77c-6.098-0.373-12.555-1.584-18.77-5.256
			c-2.996,4.797,3.429,6.145,6.006,6.006c0.415,5.092,2.861,8.15,5.255,11.262c-1.073,10.465-13.226,15.201-22.522,12.764
			c-4.462,2.334-0.797,8.393-0.751,12.762c-5.48,3.592-11.808-3.572-15.016,0c0.076,3.68,5.217,2.291,3.754,7.51
			c0.888,0.863,2.653,0.85,4.505,0.75c-2.11,4.219-1.487,8.186-2.252,16.518c-2.599,1.406-6.165,1.844-6.758,5.254
			c1.508,5.5,6.365,7.65,12.013,9.01c2.215,5.496-3.859,6.434-6.006,9.76c-0.577,2.83,0.916,3.59,0.751,6.008
			c-1.29,1.463-3.231,2.273-3.755,4.504c0.067,5.439,3.52,7.492,6.757,9.76C405.59,507.826,400.632,511.674,399.943,518.193z"/>
		<path fill-rule="evenodd" clip-rule="evenodd" fill="#FFFFFF" d="M396.188,113.525c0.751,0,1.502,0,2.253,0
			c1.505,1.594-1.066,3.346-1.502,5.256c-0.604-0.397-1.219-0.783-2.252-0.751C394.935,116.275,395.59,114.928,396.188,113.525z"/>
		<path fill-rule="evenodd" clip-rule="evenodd" fill="#FFFFFF" d="M359.401,444.617c4.445,0.309,4.354,5.154,4.504,9.76
			c-2.296,0.545-2.208-1.295-4.504-0.75C360.764,449.09,357.866,448.078,359.401,444.617z"/>
		<path fill-rule="evenodd" clip-rule="evenodd" fill="#FFFFFF" d="M410.453,446.119c1.001,0,2.002,0,3.004,0
			c-0.375,2.361,1.636,2.934,0,4.504C410.865,450.711,409.966,449.109,410.453,446.119z"/>
		<path fill-rule="evenodd" clip-rule="evenodd" fill="#FFFFFF" d="M364.656,462.635c0.751,0,1.502,0,2.253,0
			c0.63,0.873,0.99,2.014,0.75,3.754c-1.851,0.1-3.617,0.115-4.505-0.75C363.546,464.527,364.266,463.746,364.656,462.635z"/>
		<path fill-rule="evenodd" clip-rule="evenodd" fill="#FFFFFF" d="M369.912,473.896c-2.338,1.963-4.759-0.799-8.259,0
			C363.841,470.859,369.194,466.943,369.912,473.896z"/>
		<path fill-rule="evenodd" clip-rule="evenodd" fill="#FFFFFF" d="M368.41,482.156c0,1,0,2.002,0,3.002
			c-1.436-0.316-3.231-0.271-3.003-2.252C366.754,483.002,366.99,481.986,368.41,482.156z"/>
		<path fill-rule="evenodd" clip-rule="evenodd" fill="#FFFFFF" d="M366.158,487.41c1.752,0,3.504,0,5.255,0
			c1.647,1.736-1.925,2.488-0.75,6.008C366.589,493.988,367.813,489.258,366.158,487.41z"/>
		<path fill-rule="evenodd" clip-rule="evenodd" fill="#FFFFFF" d="M449.493,502.426c3.072,0.955-0.886,4.164-3.002,4.506
			c-0.276-1.277,0.585-1.418,1.501-1.502c-0.397-0.604-0.783-1.219-0.75-2.252C448.308,503.242,449.367,503.301,449.493,502.426z"/>
		<path fill-rule="evenodd" clip-rule="evenodd" fill="#FFFFFF" d="M457.752,503.928c-1.851,1.045-3.972,4.488-6.757,2.252
			C452.163,503.385,454.383,502.797,457.752,503.928z"/>
		<path fill-rule="evenodd" clip-rule="evenodd" fill="#FFFFFF" d="M399.943,520.445c2.822-1.477,6.881,1.375,11.261,0.75
			c-0.635-1.617-3.293-1.211-4.504-2.252c0.439-1.563,1.577-2.428,2.252-3.754c-2.597-0.609-3.17,1.402-4.505,0
			c0-1.252,0-2.502,0-3.754c1.976-0.777,4.607-0.898,7.508-0.75c3.271,6.988,10.278,10.242,19.52,11.262
			c-0.83,4.068-6.97,2.838-9.009,0.75C415.318,523.615,404.45,525.725,399.943,520.445z"/>
		<path fill-rule="evenodd" clip-rule="evenodd" fill="#FFFFFF" d="M381.174,512.188c2.132-2.326,5.43,0.531,7.508,0.75
			C387.447,515.193,382.988,514.498,381.174,512.188z"/>
		<path fill-rule="evenodd" clip-rule="evenodd" fill="#FFFFFF" d="M402.195,513.688c1.91,0.076,1.773,2.799,0.75,3.754
			C401.035,517.365,401.172,514.645,402.195,513.688z"/>
		<path fill-rule="evenodd" clip-rule="evenodd" fill="#FFFFFF" d="M388.682,515.939c2.891,0.113,4.319,1.688,5.255,3.754
			C391.913,521.17,389.504,518.014,388.682,515.939z"/>
		<path fill-rule="evenodd" clip-rule="evenodd" fill="#FFFFFF" d="M423.968,526.451c-1.982,0.02-4.705-0.701-3.754,2.252
			c-2.563-0.189-3.607-1.898-6.757-1.502C414.397,524.119,423.707,521.299,423.968,526.451z"/>
		<path fill-rule="evenodd" clip-rule="evenodd" fill="#FFFFFF" d="M429.974,527.953c-1.566,1.186-3.948,1.557-6.757,1.502
			C423.166,526.477,429.188,525.59,429.974,527.953z"/>
	</g>
</g>
</svg>
