<?xml version="1.0" encoding="utf-8"?>
<!-- Generator: Adobe Illustrator 15.0.0, SVG Export Plug-In . SVG Version: 6.00 Build 0)  -->
<!DOCTYPE svg PUBLIC "-//W3C//DTD SVG 1.1//EN" "http://www.w3.org/Graphics/SVG/1.1/DTD/svg11.dtd">
<svg version="1.1" id="Layer_1" xmlns="http://www.w3.org/2000/svg" xmlns:xlink="http://www.w3.org/1999/xlink" x="0px" y="0px"
	 width="580px" height="580px" viewBox="0 0 580 580" enable-background="new 0 0 580 580" xml:space="preserve">
<g id="Layer_2">
	<g id="g1327">
		<path id="path1329" fill="#111111" stroke="#EEEEEE" stroke-width="3.408" d="M66.275,1.768
			c-41.335,0-64.571,21.371-64.571,65.036v450.123c0,40.844,20.895,62.229,62.192,62.229h452.024
			c41.307,0,62.229-20.315,62.229-62.229V66.804c0-42.602-20.923-65.036-63.521-65.036C514.625,1.768,66.133,1.625,66.275,1.768z"/>
	</g>
</g>
<g id="svg2" sodipodi:version="0.32" inkscape:version="0.46" sodipodi:docname="waste_bin.svg" xmlns:cc="http://creativecommons.org/ns#" xmlns:sodipodi="http://sodipodi.sourceforge.net/DTD/sodipodi-0.dtd" xmlns:svg="http://www.w3.org/2000/svg" xmlns:inkscape="http://www.inkscape.org/namespaces/inkscape" xmlns:rdf="http://www.w3.org/1999/02/22-rdf-syntax-ns#" xmlns:dc="http://purl.org/dc/elements/1.1/" inkscape:output_extension="org.inkscape.output.svg.inkscape">
	<g>
		<g>
			<path fill="#FFFFFF" d="M74.873,43.097c-10.313,0-30.235,26.138-30.235,50.016c0,19.216,8.771,35.495,20.896,41.123
				l-2.51,135.689h23.697l-2.511-135.689c12.127-5.627,20.897-21.906,20.897-41.123C105.108,69.235,85.188,43.097,74.873,43.097z"/>
		</g>
		<g>
			<path fill="#FFFFFF" d="M198.659,111.82l-3.151-65.34c0-1.249-1.013-2.261-2.262-2.261h-1.482c-1.249,0-2.262,1.012-2.262,2.261
				l1.051,65.34h-6.526l-1.653-65.977c0-1.248-1.013-2.261-2.261-2.261h-1.932c-1.248,0-2.261,1.013-2.261,2.261l0.894,65.977
				h-8.099l0.894-65.977c0-1.248-1.011-2.261-2.26-2.261h-1.932c-1.249,0-2.262,1.013-2.262,2.261l-1.653,65.977h-6.389
				l1.049-65.333c0-1.248-1.011-2.26-2.259-2.26h-1.485c-1.249,0-2.261,1.012-2.261,2.26l-3.277,65.333
				c0,19.216,4.418,26.453,16.545,32.08l-2.51,126.024h23.696L182.104,143.9C194.229,138.273,198.659,131.037,198.659,111.82z"/>
		</g>
	</g>
	<path fill="#FFFFFF" d="M533.129,416.434c0,0-22.188-73.958-28.352-89.982c-6.163-16.023-13.56-19.723-13.56-19.723
		c-28.962-11.708-44.314,8.094-44.319,8.102l-2.315-14.47h3.288l-0.821-5.753h-5.752c0,0-11.678-15.215-35.962-17.085
		c0.112-0.609,0.18-1.234,0.18-1.874c0-5.672-4.601-10.272-10.273-10.272c-5.672,0-10.271,4.601-10.271,10.272
		c0,1.142,0.193,2.236,0.537,3.263c-8.589,1.762-18.197,5.135-28.853,10.768c0,0-10.684,0.821-8.218,4.93l-4.108,156.957
		c0,0-62.453-81.354-80.532-100.255c-18.08-18.9-53.416-47.663-53.416-47.663l-7.586,0.843l50.9,47.345l88.168,138.354v18.078v4.109
		c0,0,52.594,27.117,135.591,0v-6.574l-22.486-140.547l10.021,62.625c8.899-3.347,40.406,15.057,40.406,15.057
		C538.676,446.018,533.129,416.434,533.129,416.434z M507.242,436.156c-17.729-1.538-28.967-14.377-36.361-16.023
		c-7.396-1.647-19.563-77.683-19.563-77.683s-1.803-36.338,26.136-33.873c0,0,7.388,0.616,12.732,10.479
		s28.149,94.298,28.149,94.298S524.972,437.694,507.242,436.156z"/>
	<path fill="#FFFFFF" d="M195.519,468.765c23.307-45.676,4.663-101.904,4.663-101.904c-58.211,25.334-64.551,75.652-61.037,110.047
		c-16.772-26.254-53.125-31.706-53.125-31.706c-1.14,19.371,5.122,33.086,14.029,42.771C79.212,489.554,62.127,499.8,62.127,499.8
		c30.239,41.426,75.231,19.493,86.381,13.116c62.232,29.531,105.188-39.399,105.188-39.399
		C231.104,462.124,211.533,462.84,195.519,468.765z"/>
</g>
</svg>
