<?xml version="1.0" encoding="utf-8"?>
<!-- Generator: Adobe Illustrator 15.0.0, SVG Export Plug-In . SVG Version: 6.00 Build 0)  -->
<!DOCTYPE svg PUBLIC "-//W3C//DTD SVG 1.1//EN" "http://www.w3.org/Graphics/SVG/1.1/DTD/svg11.dtd">
<svg version="1.1" xmlns="http://www.w3.org/2000/svg" xmlns:xlink="http://www.w3.org/1999/xlink" x="0px" y="0px" width="580px"
	 height="580px" viewBox="0 0 580 580" enable-background="new 0 0 580 580" xml:space="preserve">
<g id="Layer_2">
	<g id="g1327">
		<path id="path1329" fill="#111111" stroke="#EEEEEE" stroke-width="3.408" d="M66.275,1.768
			c-41.335,0-64.571,21.371-64.571,65.036v450.123c0,40.844,20.894,62.229,62.192,62.229H515.92
			c41.307,0,62.229-20.316,62.229-62.229V66.804c0-42.601-20.923-65.036-63.522-65.036C514.624,1.768,66.133,1.625,66.275,1.768z"/>
	</g>
</g>
<g id="svg2" inkscape:output_extension="org.inkscape.output.svg.inkscape" inkscape:version="0.46" sodipodi:docname="waste_bin.svg" sodipodi:version="0.32" xmlns:dc="http://purl.org/dc/elements/1.1/" xmlns:cc="http://creativecommons.org/ns#" xmlns:sodipodi="http://sodipodi.sourceforge.net/DTD/sodipodi-0.dtd" xmlns:svg="http://www.w3.org/2000/svg" xmlns:rdf="http://www.w3.org/1999/02/22-rdf-syntax-ns#" xmlns:inkscape="http://www.inkscape.org/namespaces/inkscape">
	<g>
		<g>
			<path fill="#FFFFFF" d="M74.873,43.097c-10.314,0-30.236,26.138-30.236,50.016c0,19.216,8.771,35.495,20.897,41.123l-2.51,135.69
				h23.697l-2.51-135.69c12.127-5.627,20.897-21.906,20.897-41.123C105.108,69.235,85.188,43.097,74.873,43.097z"/>
		</g>
		<g>
			<path fill="#FFFFFF" d="M198.659,111.82l-3.151-65.34c0-1.249-1.013-2.261-2.262-2.261h-1.483c-1.249,0-2.261,1.012-2.261,2.261
				l1.05,65.34h-6.526l-1.653-65.977c0-1.248-1.013-2.26-2.261-2.26h-1.932c-1.248,0-2.26,1.012-2.26,2.26l0.893,65.977h-8.098
				l0.893-65.977c0-1.248-1.011-2.26-2.26-2.26h-1.931c-1.249,0-2.262,1.012-2.262,2.26l-1.653,65.977h-6.389l1.049-65.333
				c0-1.248-1.011-2.26-2.259-2.26h-1.485c-1.249,0-2.261,1.012-2.261,2.26l-3.277,65.333c0,19.216,4.418,26.453,16.545,32.08
				l-2.51,126.025h23.696L182.104,143.9C194.229,138.273,198.659,131.037,198.659,111.82z"/>
		</g>
	</g>
	<g>
		<path fill="#FFFFFF" d="M293.999,364.344c-12.814-14.72-21.88-28.007-27.24-39.996c-16.118,11.602-62.052,51.14-79.476,66.225
			c11.531-4.572,24.477-8.798,38.846-12.659C255.418,370.043,282.245,365.929,293.999,364.344z"/>
		<path fill="#FFFFFF" d="M304.28,377.188c-0.642-0.904-1.295-1.807-1.969-2.706c-0.331-0.327-0.643-0.656-0.981-0.982
			c0,0-0.355,0.04-1.021,0.119c-2.607,0.313-10.077,1.261-20.537,3c-36.141,6.012-107.915,21.488-137.709,52.985
			c-12.851,13.584-17.895,30.148-8.896,50.22c22.215,49.553,66.869,61.15,101.155,61.15c14.431,0,27.017-2.054,35.33-4.195
			l11.709-10.956c0.214-0.2,21.539-20.369,33.871-50.514C329.496,440.438,325.793,407.494,304.28,377.188z"/>
		<path fill="#FFFFFF" d="M476.479,223.554c-25.821,0-50.41,7.093-53.623,8.057c-6.568,1.971-69.22,22.853-84.739,26.932
			c-21.089,5.546-75.986,9.91-66.003,51.011c3.073,12.649,12.29,28.778,30.532,49.494c2.398,2.724,4.633,5.444,6.714,8.161
			c0.161,0.21,0.315,0.419,0.475,0.629c64.293,84.873-21.641,165.286-21.641,165.286c2.419-0.483,4.961-1.248,7.606-2.257
			c76.376-29.113,242.67-269.039,242.67-269.039C531.757,231.29,503.446,223.553,476.479,223.554z"/>
	</g>
</g>
</svg>
