<?xml version="1.0" encoding="utf-8"?>
<!-- Generator: Adobe Illustrator 15.0.0, SVG Export Plug-In . SVG Version: 6.00 Build 0)  -->
<!DOCTYPE svg PUBLIC "-//W3C//DTD SVG 1.1//EN" "http://www.w3.org/Graphics/SVG/1.1/DTD/svg11.dtd">
<svg version="1.1" xmlns="http://www.w3.org/2000/svg" xmlns:xlink="http://www.w3.org/1999/xlink" x="0px" y="0px" width="580px"
	 height="580px" viewBox="0 0 580 580" enable-background="new 0 0 580 580" xml:space="preserve">
<g id="Layer_1">
	<g id="Layer_2">
		<g id="g1327">
			<path id="path1329" fill="#111111" stroke="#EEEEEE" stroke-width="3.408" d="M66.275,1.768
				c-41.335,0-64.571,21.371-64.571,65.036v450.123c0,40.844,20.895,62.229,62.192,62.229H515.92
				c41.307,0,62.229-20.315,62.229-62.229V66.804c0-42.601-20.924-65.036-63.521-65.036C514.624,1.768,66.133,1.625,66.275,1.768z"
				/>
		</g>
	</g>
</g>
<g id="Layer_4">
	<g>
		<path fill="#FFFFFF" d="M230.197,440.794l-77.63-66.557c-0.249,0.416-0.483,0.837-0.697,1.267L230.197,440.794z"/>
		<path fill="#FFFFFF" d="M230.197,440.794h117.489l-4.872-4.062C311.82,414.75,230.197,416.102,230.197,440.794z"/>
		<path fill="#FFFFFF" d="M299.85,44.202L43.621,240.148h59.146v295.649H477.26V240.148h59.119L299.85,44.202z M347.687,506.058
			c0,13.063-26.099,13.063-26.099,0v-39.164h-78.329v39.164c0,13.063-26.126,13.063-26.126,0v-39.164l-65.263-52.227v26.127
			c0,13.037-26.127,13.037-26.127,0V310.24c0-13.063,26.127-13.063,26.127,0v13.037h78.327V310.24c0-13.063,26.099-13.063,26.099,0
			v39.163c-13.037-13.063-107.033-13.063-117.489,13.037l13.761,11.797c14.904-24.825,91.121-24.404,116.792,1.267l73.455,61.229
			c1.801,1.276,3.44,2.627,4.872,4.062V506.058z M423.406,275.078c-3.33,3.356-11.694,8.364-21.711-1.652
			c-8.731,9.427-16.667,18.04-23.909,25.913c41.276,43.503,57.551,60.332,47.298,69.298c-11.468,10.207-24.896-6.845-63.307-51.894
			c-48.013,52.154-57.513,61.394-67.015,51.894c-9.576-9.576-0.083-19.163,52.267-69.09c-8.556-9.905-18.122-20.834-28.876-32.808
			c-33.406,25.043-58.448-43.449-41.746-60.152c16.705-20.033,90.203,11.695,56.798,45.102
			c10.967,11.965,20.995,22.693,30.093,32.342c7.621-7.275,15.938-15.233,25.024-23.977c-10.018-10.017-5.008-16.704-1.652-20.06
			c11.695-13.347,38.414-43.423,45.102-36.736c6.687,6.686-35.085,35.084-28.398,41.745c6.687,6.687,35.085-35.059,41.771-28.398
			c6.66,6.687-31.755,20.06-25.068,41.771c6.688,5.008,31.729-35.084,38.415-28.398C465.178,236.664,436.78,263.383,423.406,275.078
			z"/>
	</g>
</g>
</svg>
