<?xml version="1.0" encoding="utf-8"?>
<!-- Generator: Adobe Illustrator 15.0.0, SVG Export Plug-In . SVG Version: 6.00 Build 0)  -->
<!DOCTYPE svg PUBLIC "-//W3C//DTD SVG 1.1//EN" "http://www.w3.org/Graphics/SVG/1.1/DTD/svg11.dtd">
<svg version="1.1" xmlns="http://www.w3.org/2000/svg" xmlns:xlink="http://www.w3.org/1999/xlink" x="0px" y="0px" width="580px"
	 height="580px" viewBox="0 0 580 580" enable-background="new 0 0 580 580" xml:space="preserve">
<g id="Layer_1">
	<g id="Layer_1_1_">
		<g id="Layer_2">
			<g id="g1327">
				<path id="path1329" fill="#111111" stroke="#EEEEEE" stroke-width="3.408" d="M66.275,1.768
					c-41.335,0-64.571,21.371-64.571,65.036v450.123c0,40.844,20.896,62.229,62.192,62.229h452.024
					c41.307,0,62.229-20.314,62.229-62.229V66.804c0-42.602-20.924-65.036-63.521-65.036C514.625,1.768,66.133,1.625,66.275,1.768z"
					/>
			</g>
		</g>
	</g>
</g>
<g id="Layer_2_2_">
	<g>
		<path fill="#FFFFFF" d="M205.718,181.85h19.005l33.269,110.931c2.644,9.51,8.188,14.266,16.636,14.264
			c12.152,0.002,18.229-6.076,18.23-18.229c-0.001-2.645-0.525-5.021-1.572-7.133l-36.461-121.206
			c-2.644-8.462-8.713-16.65-18.206-24.565c-11.622-9.509-24.3-14.265-38.032-14.265h-84.77c-13.218,0-25.105,4.755-35.663,14.265
			c-7.931,7.383-13.209,15.571-15.837,24.565L25.855,281.682c-1.047,2.644-1.571,5.022-1.571,7.133
			c0,12.153,6.068,18.231,18.206,18.229c8.463,0.002,14.016-4.754,16.659-14.264l33.27-110.931h18.206L55.958,379.121h53.096
			v153.701c0,13.734,6.601,20.6,19.802,20.6s19.802-6.865,19.802-20.6V378.347h19.826v155.273c0,13.201,6.601,19.801,19.802,19.801
			s19.802-6.6,19.803-19.801v-154.5h53.071L205.718,181.85z"/>
		<path fill="#FFFFFF" d="M158.183,112.918c12.138,0,22.434-4.223,30.888-12.669c8.454-8.446,12.682-18.48,12.682-30.102
			c0-12.153-4.228-22.453-12.682-30.9c-8.454-8.446-18.75-12.669-30.888-12.669c-11.622,0-21.66,4.224-30.114,12.669
			c-8.454,8.447-12.682,18.747-12.682,30.9c0,11.622,4.228,21.656,12.682,30.102C136.523,108.696,146.561,112.919,158.183,112.918z"
			/>
		<polygon fill="#FFFFFF" points="374.46,487.937 354.914,417.416 317.973,417.416 298.513,487.937 285.167,417.416 248.14,417.416 
			276.212,543.648 314.443,543.648 336.486,464.172 358.616,543.648 396.847,543.648 424.661,417.416 387.806,417.416 		"/>
		<path fill="#FFFFFF" d="M521.531,492.07c-1.722,7.979-4.492,14.064-8.31,18.254c-3.817,4.191-9.457,6.287-16.92,6.287
			c-7.692,0-13.662-2.598-17.91-7.793s-6.372-14.797-6.372-28.803c0-11.309,1.779-19.604,5.339-24.885
			c4.707-7.119,11.48-10.678,20.321-10.678c3.903,0,7.434,0.805,10.591,2.41c3.157,1.607,5.827,3.904,8.008,6.889
			c1.32,1.781,2.584,4.594,3.789,8.439l34.443-7.664c-4.421-13.318-11.18-23.191-20.278-29.621s-21.599-9.643-37.5-9.643
			c-20.321,0-36.036,5.611-47.144,16.834c-11.108,11.223-16.662,27.281-16.662,48.176c0,15.672,3.157,28.531,9.472,38.576
			c6.314,10.047,13.82,17.064,22.518,21.053c8.696,3.99,19.905,5.984,33.625,5.984c11.309,0,20.622-1.635,27.941-4.908
			c7.319-3.271,13.447-8.121,18.384-14.551s8.554-14.438,10.85-24.025L521.531,492.07z"/>
	</g>
</g>
</svg>
