<?xml version="1.0" encoding="utf-8"?>
<!-- Generator: Adobe Illustrator 15.0.0, SVG Export Plug-In . SVG Version: 6.00 Build 0)  -->
<!DOCTYPE svg PUBLIC "-//W3C//DTD SVG 1.1//EN" "http://www.w3.org/Graphics/SVG/1.1/DTD/svg11.dtd">
<svg version="1.1" xmlns="http://www.w3.org/2000/svg" xmlns:xlink="http://www.w3.org/1999/xlink" x="0px" y="0px" width="580px"
	 height="580px" viewBox="0 0 580 580" enable-background="new 0 0 580 580" xml:space="preserve">
<g id="Layer_1">
	<g id="Layer_1_1_">
		<g id="Layer_2">
			<g id="g1327">
				<path id="path1329" fill="#111111" stroke="#EEEEEE" stroke-width="3.408" d="M66.275,1.768
					c-41.335,0-64.571,21.371-64.571,65.036v450.123c0,40.844,20.895,62.229,62.192,62.229H515.92
					c41.307,0,62.229-20.315,62.229-62.229V66.804c0-42.601-20.925-65.036-63.521-65.036C514.624,1.768,66.133,1.625,66.275,1.768z"
					/>
			</g>
		</g>
	</g>
</g>
<g id="Layer_2_1_">
	<g>
		<path fill="#FFFFFF" d="M44.5,34.5v343h201v-343H44.5z M212,70c3.59,0,6.5,2.91,6.5,6.5S215.59,83,212,83s-6.5-2.91-6.5-6.5
			S208.41,70,212,70z M212,86.847c3.59,0,6.5,2.91,6.5,6.5s-2.91,6.5-6.5,6.5s-6.5-2.91-6.5-6.5S208.41,86.847,212,86.847z
			 M212,103.693c3.59,0,6.5,2.91,6.5,6.5s-2.91,6.5-6.5,6.5s-6.5-2.91-6.5-6.5S208.41,103.693,212,103.693z M212,120.54
			c3.59,0,6.5,2.91,6.5,6.5s-2.91,6.5-6.5,6.5s-6.5-2.91-6.5-6.5S208.41,120.54,212,120.54z M212,137.387c3.59,0,6.5,2.91,6.5,6.5
			s-2.91,6.5-6.5,6.5s-6.5-2.91-6.5-6.5S208.41,137.387,212,137.387z M198.5,344.5h-127v-282h127V344.5z M236.5,168h-31v-6h31V168z
			 M230,150.387c-3.59,0-6.5-2.91-6.5-6.5s2.91-6.5,6.5-6.5s6.5,2.91,6.5,6.5S233.59,150.387,230,150.387z M230,133.54
			c-3.59,0-6.5-2.91-6.5-6.5s2.91-6.5,6.5-6.5s6.5,2.91,6.5,6.5S233.59,133.54,230,133.54z M230,116.693c-3.59,0-6.5-2.91-6.5-6.5
			s2.91-6.5,6.5-6.5s6.5,2.91,6.5,6.5S233.59,116.693,230,116.693z M230,99.847c-3.59,0-6.5-2.91-6.5-6.5s2.91-6.5,6.5-6.5
			s6.5,2.91,6.5,6.5S233.59,99.847,230,99.847z M230,83c-3.59,0-6.5-2.91-6.5-6.5s2.91-6.5,6.5-6.5s6.5,2.91,6.5,6.5
			S233.59,83,230,83z"/>
		<rect x="79.833" y="299.166" fill="#FFFFFF" width="112.667" height="38"/>
		<g>
			<rect x="79.833" y="90.847" fill="#FFFFFF" width="112.667" height="5"/>
		</g>
		<g>
			<rect x="79.833" y="118.04" fill="#FFFFFF" width="112.667" height="5"/>
		</g>
		<g>
			<rect x="79.833" y="145.233" fill="#FFFFFF" width="112.667" height="5"/>
		</g>
		<g>
			<rect x="79.833" y="172.427" fill="#FFFFFF" width="112.667" height="5"/>
		</g>
		<g>
			<rect x="79.833" y="199.62" fill="#FFFFFF" width="112.667" height="5"/>
		</g>
		<g>
			<rect x="79.833" y="226.813" fill="#FFFFFF" width="112.667" height="5"/>
		</g>
		<g>
			<rect x="79.833" y="254.007" fill="#FFFFFF" width="112.667" height="5"/>
		</g>
	</g>
	<path fill="#FFFFFF" d="M383.78,171.523l-157.627,275.59l168.255,96.235l157.627-275.589L383.78,171.523z M452.162,222.833
		l20.978,11.998l-11.998,20.978l-20.978-11.998L452.162,222.833z M422.547,205.893l20.977,11.999l-11.998,20.978l-20.978-11.999
		L422.547,205.893z M266.928,457.929l-20.978-11.998l11.998-20.979l20.978,11.998L266.928,457.929z M401.91,221.93l-20.977-11.999
		l11.997-20.977l20.978,11.998L401.91,221.93z M296.544,474.868l-20.978-11.998l11.998-20.979l20.977,11.998L296.544,474.868z
		 M326.158,491.807l-20.977-11.999l11.998-20.978l20.977,11.999L326.158,491.807z M417.297,330.269
		c-1.144-1.976-2.837-3.825-4.834-5.427c-0.555,1.418-1.267,2.91-2.125,4.409l-56.297,98.428
		c-3.473,6.071-8.053,10.044-10.177,8.827c-2.125-1.214-1.022-7.176,2.45-13.246l56.298-98.43c0.857-1.498,1.781-2.868,2.721-4.064
		c-2.391-0.909-4.845-1.431-7.128-1.416l-8.038,0.054c-6.993,0.048-8.207-3.438-2.697-7.745l40.263-31.47
		c5.51-4.307,9.268-2.158,8.35,4.776l-6.706,50.662c-0.918,6.935-4.539,7.655-8.045,1.604L417.297,330.269z M355.774,508.746
		l-20.978-11.999l11.998-20.978l20.978,11.998L355.774,508.746z M490.757,272.747l-20.979-11.999l11.999-20.978l20.978,11.999
		L490.757,272.747z M385.389,525.685l-20.978-11.998l11.999-20.978l20.978,11.997L385.389,525.685z M520.372,289.687l-20.979-12
		l12-20.977l20.978,12L520.372,289.687z"/>
</g>
</svg>
