<?xml version="1.0" encoding="utf-8"?>
<!-- Generator: Adobe Illustrator 15.0.0, SVG Export Plug-In . SVG Version: 6.00 Build 0)  -->
<!DOCTYPE svg PUBLIC "-//W3C//DTD SVG 1.1//EN" "http://www.w3.org/Graphics/SVG/1.1/DTD/svg11.dtd">
<svg version="1.1" xmlns="http://www.w3.org/2000/svg" xmlns:xlink="http://www.w3.org/1999/xlink" x="0px" y="0px" width="580px"
	 height="580px" viewBox="0 0 580 580" enable-background="new 0 0 580 580" xml:space="preserve">
<g id="Layer_1">
	<g id="Layer_1_1_">
		<g id="Layer_2">
			<g id="g1327">
				<path id="path1329" fill="#111111" stroke="#EEEEEE" stroke-width="3.408" d="M66.275,1.768
					c-41.335,0-64.571,21.371-64.571,65.036v450.123c0,40.844,20.895,62.229,62.192,62.229H515.92
					c41.307,0,62.229-20.315,62.229-62.229V66.804c0-42.601-20.925-65.036-63.521-65.036C514.624,1.768,66.133,1.625,66.275,1.768z"
					/>
			</g>
		</g>
	</g>
</g>
<g id="Layer_2_1_">
	<path id="text2419" fill="#FFFFFF" d="M44.716,415.642V45.766h139.523c24.558,0,43.312,1.178,56.264,3.532
		c18.165,3.028,33.388,8.789,45.667,17.283c12.278,8.494,22.16,20.395,29.646,35.7c7.484,15.307,11.227,32.127,11.228,50.461
		c-0.001,31.454-10.009,58.071-30.024,79.854c-20.017,21.782-56.18,32.673-108.49,32.673H93.663v150.373H44.716z M93.663,221.62
		h95.622c31.622,0.001,54.077-5.887,67.365-17.661c13.287-11.773,19.932-28.342,19.932-49.703c0-15.475-3.911-28.721-11.732-39.737
		c-7.821-11.018-18.124-18.292-30.906-21.824c-8.242-2.187-23.465-3.28-45.667-3.28H93.663V221.62z"/>
	<path fill="#FFFFFF" d="M335.756,320.055l-11.294-29.132c-2.126-5.546-6.729-10.284-15.407-10.284h-15.949h-27.159h-16.142
		c-8.678,0-13.281,4.738-15.407,10.284l-11.283,29.132c-4.472,0.573-12.4,5.823-12.4,15.768v37.046h10.981v11.848
		c0,14.576,20.627,14.404,20.627,0v-11.848h37.105h0.012h37.106v11.848c0,14.404,20.628,14.576,20.628,0v-11.848h10.981v-37.046
		C348.157,325.878,340.229,320.628,335.756,320.055z M232.341,350.544c-5.262,0-9.526-4.401-9.526-9.826
		c0-5.424,4.264-9.814,9.526-9.814s9.526,4.391,9.526,9.814C241.867,346.143,237.603,350.544,232.341,350.544z M279.441,319.753
		h-0.012h-0.024h-44.611l8.504-22.925c1.063-3.221,2.654-5.546,6.375-5.581h29.732h0.024h0.012h29.745
		c3.72,0.035,5.313,2.36,6.375,5.581l8.504,22.925H279.441z M326.531,350.544c-5.263,0-9.538-4.401-9.538-9.826
		c0-5.424,4.275-9.814,9.538-9.814c5.262,0,9.526,4.391,9.526,9.814C336.058,346.143,331.793,350.544,326.531,350.544z"/>
	<path fill="#FFFFFF" d="M517.099,320.055l-11.293-29.132c-2.126-5.546-6.729-10.284-15.408-10.284h-15.949h-27.159h-16.142
		c-8.679,0-13.281,4.738-15.407,10.284l-11.282,29.132c-4.472,0.573-12.4,5.823-12.4,15.768v37.046h10.981v11.848
		c0,14.576,20.628,14.404,20.628,0v-11.848h37.105h0.012h37.106v11.848c0,14.404,20.628,14.576,20.628,0v-11.848H529.5v-37.046
		C529.5,325.878,521.571,320.628,517.099,320.055z M413.684,350.544c-5.263,0-9.526-4.401-9.526-9.826
		c0-5.424,4.264-9.814,9.526-9.814s9.526,4.391,9.526,9.814C423.21,346.143,418.946,350.544,413.684,350.544z M460.784,319.753
		h-0.012h-0.024h-44.61l8.504-22.925c1.063-3.221,2.654-5.546,6.374-5.581h29.732h0.024h0.012h29.745
		c3.72,0.035,5.313,2.36,6.375,5.581l8.504,22.925H460.784z M507.874,350.544c-5.263,0-9.538-4.401-9.538-9.826
		c0-5.424,4.275-9.814,9.538-9.814c5.262,0,9.526,4.391,9.526,9.814C517.4,346.143,513.136,350.544,507.874,350.544z"/>
	<path fill="#FFFFFF" d="M335.756,475.116l-11.294-29.132c-2.126-5.546-6.729-10.284-15.407-10.284h-15.949h-27.159h-16.142
		c-8.678,0-13.281,4.738-15.407,10.284l-11.283,29.132c-4.472,0.573-12.4,5.823-12.4,15.768v37.046h10.981v11.848
		c0,14.576,20.627,14.404,20.627,0V527.93h37.105h0.012h37.106v11.848c0,14.404,20.628,14.576,20.628,0V527.93h10.981v-37.046
		C348.157,480.939,340.229,475.689,335.756,475.116z M232.341,505.605c-5.262,0-9.526-4.401-9.526-9.826
		c0-5.424,4.264-9.814,9.526-9.814s9.526,4.391,9.526,9.814C241.867,501.204,237.603,505.605,232.341,505.605z M279.441,474.814
		h-0.012h-0.024h-44.611l8.504-22.925c1.063-3.221,2.654-5.546,6.375-5.581h29.732h0.024h0.012h29.745
		c3.72,0.035,5.313,2.36,6.375,5.581l8.504,22.925H279.441z M326.531,505.605c-5.263,0-9.538-4.401-9.538-9.826
		c0-5.424,4.275-9.814,9.538-9.814c5.262,0,9.526,4.391,9.526,9.814C336.058,501.204,331.793,505.605,326.531,505.605z"/>
	<path fill="#FFFFFF" d="M517.099,475.116l-11.293-29.132c-2.126-5.546-6.729-10.284-15.408-10.284h-15.949h-27.159h-16.142
		c-8.679,0-13.281,4.738-15.407,10.284l-11.282,29.132c-4.472,0.573-12.4,5.823-12.4,15.768v37.046h10.981v11.848
		c0,14.576,20.628,14.404,20.628,0V527.93h37.105h0.012h37.106v11.848c0,14.404,20.628,14.576,20.628,0V527.93H529.5v-37.046
		C529.5,480.939,521.571,475.689,517.099,475.116z M413.684,505.605c-5.263,0-9.526-4.401-9.526-9.826
		c0-5.424,4.264-9.814,9.526-9.814s9.526,4.391,9.526,9.814C423.21,501.204,418.946,505.605,413.684,505.605z M460.784,474.814
		h-0.012h-0.024h-44.61l8.504-22.925c1.063-3.221,2.654-5.546,6.374-5.581h29.732h0.024h0.012h29.745
		c3.72,0.035,5.313,2.36,6.375,5.581l8.504,22.925H460.784z M507.874,505.605c-5.263,0-9.538-4.401-9.538-9.826
		c0-5.424,4.275-9.814,9.538-9.814c5.262,0,9.526,4.391,9.526,9.814C517.4,501.204,513.136,505.605,507.874,505.605z"/>
	<rect x="173.528" y="406.558" fill="#FFFFFF" width="389.972" height="5.257"/>
</g>
</svg>
