<?xml version="1.0" encoding="utf-8"?>
<!-- Generator: Adobe Illustrator 15.0.0, SVG Export Plug-In . SVG Version: 6.00 Build 0)  -->
<!DOCTYPE svg PUBLIC "-//W3C//DTD SVG 1.1//EN" "http://www.w3.org/Graphics/SVG/1.1/DTD/svg11.dtd">
<svg version="1.1" xmlns="http://www.w3.org/2000/svg" xmlns:xlink="http://www.w3.org/1999/xlink" x="0px" y="0px" width="580px"
	 height="580px" viewBox="0 0 580 580" enable-background="new 0 0 580 580" xml:space="preserve">
<g id="Layer_2">
	<g id="g1327">
		<path id="path1329" fill="#111111" stroke="#EEEEEE" stroke-width="3.408" d="M66.275,1.768
			c-41.335,0-64.571,21.371-64.571,65.036v450.123c0,40.844,20.894,62.229,62.192,62.229H515.92
			c41.307,0,62.229-20.316,62.229-62.229V66.804c0-42.601-20.923-65.036-63.522-65.036C514.624,1.768,66.133,1.625,66.275,1.768z"/>
	</g>
</g>
<g id="svg2" inkscape:version="0.46" sodipodi:docname="waste_bin.svg" sodipodi:version="0.32" xmlns:cc="http://creativecommons.org/ns#" xmlns:dc="http://purl.org/dc/elements/1.1/" xmlns:rdf="http://www.w3.org/1999/02/22-rdf-syntax-ns#" xmlns:inkscape="http://www.inkscape.org/namespaces/inkscape" xmlns:svg="http://www.w3.org/2000/svg" xmlns:sodipodi="http://sodipodi.sourceforge.net/DTD/sodipodi-0.dtd" inkscape:output_extension="org.inkscape.output.svg.inkscape">
	<g>
		<path fill="#FFFFFF" d="M94.504,57.205c-0.185-0.901-0.559-1.753-1.098-2.499c-0.424-0.586-4.34-5.753-11.321-6.583
			c-3.509-0.416-8.958,0.178-15.055,5.349L47.145,68.953c-2.833,2.205-3.342,6.289-1.136,9.122c2.205,2.834,6.29,3.341,9.122,1.136
			l20-15.57c0.081-0.063,0.16-0.127,0.237-0.194c1.966-1.685,3.783-2.547,5.11-2.423c0.667,0.062,1.249,0.369,1.68,0.682
			l13.124,63.935H48.137l20.06,139.367h70.315l14.625-139.367h-44.585L94.504,57.205z"/>
		<polygon fill="#FFFFFF" points="241.824,126.582 246.284,103.871 237.867,102.217 233.083,126.582 226.204,126.582 
			233.995,86.906 225.579,85.252 220.126,113.016 209.969,77.042 201.714,79.372 215.042,126.582 213.887,126.582 194.863,126.582 
			205.563,100.401 197.623,97.156 187.516,121.885 177.302,85.708 169.047,88.039 179.929,126.582 167.086,126.582 190.487,195.294 
			213.887,264.007 237.288,195.294 260.688,126.582 		"/>
	</g>
	<g>
		<polygon fill="#FFFFFF" points="544.779,256.829 530.416,250.574 503.799,311.689 498.381,265.234 482.82,267.049 
			489.648,325.579 450.143,325.579 477.4,229.578 462.33,225.298 433.857,325.579 404.102,325.579 427.348,269.124 412.861,263.159 
			389.234,320.54 389.234,232.967 373.568,232.967 373.568,325.579 368.797,325.579 336.33,225.031 321.422,229.845 345.68,304.974 
			316.23,277.675 305.58,289.165 344.863,325.579 319.199,325.579 413.193,552.27 537.598,325.579 514.838,325.579 		"/>
		<path fill="#FFFFFF" d="M94.305,397.349c-23.694,10.89-44.045,27.809-59.084,48.798c12.826,17.899,29.516,32.838,48.846,43.604
			c12.259-14.577,19.663-33.366,19.663-53.859C103.73,421.998,100.313,408.896,94.305,397.349z"/>
		<path fill="#FFFFFF" d="M156.375,383.814c-20.019,0-39.104,3.961-56.536,11.126c6.321,12.286,9.892,26.209,9.892,40.95
			c0,21.497-7.595,41.252-20.238,56.729c20.11,10.136,42.822,15.858,66.882,15.858c48.763,0,92.012-23.46,119.191-59.671
			l43.633,59.671V369.372l-43.836,73.842C248.173,407.154,205.015,383.814,156.375,383.814z"/>
	</g>
</g>
</svg>
