<?xml version="1.0" encoding="utf-8"?>
<!-- Generator: Adobe Illustrator 15.0.0, SVG Export Plug-In . SVG Version: 6.00 Build 0)  -->
<!DOCTYPE svg PUBLIC "-//W3C//DTD SVG 1.1//EN" "http://www.w3.org/Graphics/SVG/1.1/DTD/svg11.dtd">
<svg version="1.1" xmlns="http://www.w3.org/2000/svg" xmlns:xlink="http://www.w3.org/1999/xlink" x="0px" y="0px" width="580px"
	 height="580px" viewBox="0 0 580 580" enable-background="new 0 0 580 580" xml:space="preserve">
<g id="Layer_2">
	<g id="g1327">
		<path id="path1329" fill="#111111" stroke="#EEEEEE" stroke-width="3.408" d="M66.275,1.768
			c-41.335,0-64.571,21.371-64.571,65.036v450.123c0,40.844,20.894,62.229,62.192,62.229H515.92
			c41.307,0,62.229-20.316,62.229-62.229V66.804c0-42.601-20.923-65.036-63.522-65.036C514.624,1.768,66.133,1.625,66.275,1.768z"/>
	</g>
</g>
<g id="svg2" inkscape:version="0.46" sodipodi:docname="waste_bin.svg" sodipodi:version="0.32" xmlns:cc="http://creativecommons.org/ns#" xmlns:dc="http://purl.org/dc/elements/1.1/" xmlns:rdf="http://www.w3.org/1999/02/22-rdf-syntax-ns#" xmlns:inkscape="http://www.inkscape.org/namespaces/inkscape" xmlns:svg="http://www.w3.org/2000/svg" xmlns:sodipodi="http://sodipodi.sourceforge.net/DTD/sodipodi-0.dtd" inkscape:output_extension="org.inkscape.output.svg.inkscape">
	<g>
		<path fill="#FFFFFF" d="M94.504,57.205c-0.185-0.901-0.559-1.753-1.098-2.499c-0.424-0.586-4.34-5.753-11.321-6.583
			c-3.509-0.416-8.958,0.178-15.055,5.349L47.145,68.953c-2.833,2.205-3.342,6.289-1.136,9.122c2.205,2.834,6.29,3.341,9.122,1.136
			l20-15.57c0.081-0.063,0.16-0.127,0.237-0.194c1.966-1.685,3.783-2.547,5.11-2.423c0.667,0.062,1.249,0.369,1.68,0.682
			l13.124,63.935H48.137l20.06,139.367h70.315l14.625-139.367h-44.585L94.504,57.205z"/>
		<polygon fill="#FFFFFF" points="241.824,126.582 246.284,103.871 237.867,102.217 233.083,126.582 226.204,126.582 
			233.995,86.906 225.579,85.252 220.126,113.016 209.969,77.042 201.714,79.372 215.042,126.582 213.887,126.582 194.863,126.582 
			205.563,100.401 197.623,97.156 187.516,121.885 177.302,85.708 169.047,88.039 179.929,126.582 167.086,126.582 190.487,195.294 
			213.887,264.007 237.288,195.294 260.688,126.582 		"/>
	</g>
	<g>
		<path fill="#FFFFFF" d="M301.884,367.668c7.998-27.15,31.97-47.512,60.997-50.156c0.398-2.758,0.615-5.573,0.615-8.439
			c0-32.351-26.319-58.67-58.671-58.67c-32.35,0-58.669,26.319-58.669,58.67C246.156,340.437,270.895,366.13,301.884,367.668z"/>
		<path fill="#FFFFFF" d="M422.488,412.229c2.123-4.545,3.674-9.404,4.574-14.488c-17.929-12.75-29.657-33.675-29.657-57.301
			c0-1.462,0.06-2.909,0.147-4.35c-7.576-4.18-16.166-6.738-25.304-7.192c-0.976-0.048-1.956-0.074-2.943-0.074
			c-1.048,0-2.089,0.03-3.123,0.085c-2.169,0.114-4.304,0.356-6.405,0.7c-20.925,3.434-38.156,17.97-45.422,37.347
			c-0.748,1.996-1.394,4.042-1.924,6.134c-0.494,1.951-0.886,3.942-1.179,5.965c-0.398,2.757-0.615,5.572-0.615,8.438
			c0,32.351,26.318,58.67,58.668,58.67c1.312,0,2.608-0.059,3.897-0.144C383.611,428.365,401.502,415.636,422.488,412.229z"/>
		<path fill="#FFFFFF" d="M280.429,422.929c-1.387,0-2.758,0.065-4.121,0.161c-2.598,30.714-25.019,55.851-54.395,62.547
			c2.083,30.472,27.523,54.632,58.515,54.632c32.351,0,58.67-26.319,58.67-58.67S312.78,422.929,280.429,422.929z"/>
		<path fill="#FFFFFF" d="M433.785,422.929c-1.311,0-2.606,0.059-3.896,0.144c-2.536,0.168-5.03,0.49-7.47,0.972
			c-3.315,0.653-6.527,1.591-9.617,2.779c-8.68,3.336-16.376,8.667-22.511,15.445c-2.23,2.464-4.244,5.126-6.035,7.942
			c-1.354,2.13-2.576,4.349-3.652,6.651c-3.513,7.522-5.487,15.901-5.487,24.736c0,32.351,26.318,58.67,58.669,58.67
			c32.352,0,58.671-26.319,58.671-58.67S466.137,422.929,433.785,422.929z"/>
		<path fill="#FFFFFF" d="M264.396,425.174c0.279-2.023,0.452-4.079,0.519-6.163c0.02-0.63,0.048-1.257,0.048-1.892
			c0-1.358-0.063-2.702-0.154-4.038c-2.084-30.472-27.524-54.631-58.517-54.631c-32.35,0-58.669,26.318-58.669,58.669
			s26.319,58.67,58.669,58.67c1.387,0,2.759-0.065,4.123-0.161c1.99-0.139,3.951-0.377,5.882-0.71
			c2.049-0.354,4.061-0.813,6.032-1.375C244.396,467.262,261.195,448.365,264.396,425.174z"/>
		<path fill="#FFFFFF" d="M467.693,281.771c-28.854,0-52.892,20.943-57.755,48.423c-0.384,2.17-0.653,4.378-0.791,6.623
			c-0.073,1.199-0.123,2.406-0.123,3.624c0,1.369,0.064,2.723,0.157,4.069c1.057,15.332,8.021,29.059,18.638,38.915
			c1.873,1.738,3.86,3.351,5.947,4.836c1.821,1.296,3.714,2.498,5.681,3.583c8.385,4.626,18.012,7.267,28.246,7.267
			c32.352,0,58.671-26.319,58.671-58.67S500.045,281.771,467.693,281.771z"/>
	</g>
</g>
</svg>
