<?xml version="1.0" encoding="utf-8"?>
<!-- Generator: Adobe Illustrator 15.0.0, SVG Export Plug-In . SVG Version: 6.00 Build 0)  -->
<!DOCTYPE svg PUBLIC "-//W3C//DTD SVG 1.1//EN" "http://www.w3.org/Graphics/SVG/1.1/DTD/svg11.dtd">
<svg version="1.1" xmlns="http://www.w3.org/2000/svg" xmlns:xlink="http://www.w3.org/1999/xlink" x="0px" y="0px" width="580px"
	 height="580px" viewBox="0 0 580 580" enable-background="new 0 0 580 580" xml:space="preserve">
<g id="Layer_2">
	<g id="g1327">
		<path id="path1329" fill="#111111" stroke="#EEEEEE" stroke-width="3.408" d="M66.275,1.768
			c-41.335,0-64.571,21.371-64.571,65.036v450.123c0,40.844,20.894,62.229,62.192,62.229H515.92
			c41.307,0,62.229-20.316,62.229-62.229V66.804c0-42.601-20.923-65.036-63.522-65.036C514.624,1.768,66.133,1.625,66.275,1.768z"/>
	</g>
</g>
<g id="svg2" inkscape:version="0.46" sodipodi:docname="waste_bin.svg" sodipodi:version="0.32" xmlns:cc="http://creativecommons.org/ns#" xmlns:dc="http://purl.org/dc/elements/1.1/" xmlns:rdf="http://www.w3.org/1999/02/22-rdf-syntax-ns#" xmlns:inkscape="http://www.inkscape.org/namespaces/inkscape" xmlns:svg="http://www.w3.org/2000/svg" xmlns:sodipodi="http://sodipodi.sourceforge.net/DTD/sodipodi-0.dtd" inkscape:output_extension="org.inkscape.output.svg.inkscape">
	<g>
		<path fill="#FFFFFF" d="M94.504,57.205c-0.185-0.901-0.559-1.753-1.098-2.499c-0.424-0.586-4.34-5.753-11.321-6.583
			c-3.509-0.416-8.958,0.178-15.055,5.349L47.145,68.953c-2.833,2.205-3.342,6.289-1.136,9.122c2.205,2.834,6.29,3.341,9.122,1.136
			l20-15.57c0.081-0.063,0.16-0.127,0.237-0.194c1.966-1.685,3.783-2.547,5.11-2.423c0.667,0.062,1.249,0.369,1.68,0.682
			l13.124,63.935H48.137l20.06,139.367h70.315l14.625-139.367h-44.585L94.504,57.205z"/>
		<polygon fill="#FFFFFF" points="241.824,126.582 246.284,103.871 237.867,102.217 233.083,126.582 226.204,126.582 
			233.995,86.906 225.579,85.252 220.126,113.016 209.969,77.042 201.714,79.372 215.042,126.582 213.887,126.582 194.863,126.582 
			205.563,100.401 197.623,97.156 187.516,121.885 177.302,85.708 169.047,88.039 179.929,126.582 167.086,126.582 190.487,195.294 
			213.887,264.007 237.288,195.294 260.688,126.582 		"/>
	</g>
	<path fill="#FFFFFF" d="M462.769,77.601c-10.937-20.115-35.837-27.78-56.136-17.536l-4.789,2.807
		c-17.739,12.063-23.782,35.849-13.319,55.095c39.653,72.932,48.626,137.076,26.669,190.654
		c-38.942,95.029-162.982,133.965-165.087,134.612c-22.081,6.635-34.718,29.727-28.516,51.855l4.04,9.63
		c7.526,13.144,21.587,21.244,36.62,21.244c3.999,0,8.064-0.572,12.093-1.772c6.672-1.99,164.038-50.262,218.81-182.949
		C525.499,262.878,515.276,174.178,462.769,77.601z M457.769,317.094c-18.565,6.959-29.869,20.903-33.599,41.445
		c-2.925,16.118-0.063,30.406-0.033,30.547c0.269,1.264,0.345,2.562,0.223,3.851c-0.115,1.238-3.121,30.556-26.945,49.318
		c-16.384,12.903-37.985,17.531-64.199,13.758c-19.562-2.815-33.604-0.281-41.741,7.535c-9.988,9.593-8.708,24.998-8.692,25.151
		c0.723,7.016-4.379,13.288-11.394,14.011c-0.444,0.046-0.887,0.068-1.324,0.068c-6.465,0-12.011-4.892-12.688-11.462
		c-0.116-1.131-2.633-27.902,16.406-46.188c14.103-13.546,35.326-18.388,63.071-14.394c18.909,2.723,33.904-0.101,44.565-8.392
		c12.793-9.947,16.442-25.534,17.296-30.383c-0.937-5.765-2.766-20.941,0.327-37.981c5.37-29.584,22.576-50.609,49.761-60.8
		c14.733-5.522,22.878-15.865,24.209-30.741c2.023-22.604-12.455-49.696-26.261-57.919c-44.969-26.784-39.379-70.563-34.446-109.188
		c0.894-6.996,7.292-11.941,14.284-11.049c6.996,0.893,11.942,7.289,11.049,14.284c-5.228,40.938-6.344,67.021,22.182,84.011
		c23.663,14.094,41.354,51.709,38.63,82.139C496.232,289.489,481.785,308.09,457.769,317.094z"/>
</g>
</svg>
