<?xml version="1.0" encoding="utf-8"?>
<!-- Generator: Adobe Illustrator 15.0.0, SVG Export Plug-In . SVG Version: 6.00 Build 0)  -->
<!DOCTYPE svg PUBLIC "-//W3C//DTD SVG 1.1//EN" "http://www.w3.org/Graphics/SVG/1.1/DTD/svg11.dtd">
<svg version="1.1" xmlns="http://www.w3.org/2000/svg" xmlns:xlink="http://www.w3.org/1999/xlink" x="0px" y="0px" width="580px"
	 height="580px" viewBox="0 0 580 580" enable-background="new 0 0 580 580" xml:space="preserve">
<g id="Layer_1">
	<g id="Layer_2">
		<g id="g1327">
			<path id="path1329" fill="#111111" stroke="#EEEEEE" stroke-width="3.408" d="M66.275,1.768
				c-41.335,0-64.571,21.371-64.571,65.036v450.123c0,40.844,20.895,62.229,62.192,62.229H515.92
				c41.307,0,62.229-20.315,62.229-62.229V66.804c0-42.601-20.924-65.036-63.521-65.036C514.624,1.768,66.133,1.625,66.275,1.768z"
				/>
		</g>
	</g>
</g>
<g id="Layer_3">
	<path id="flowRoot3192" fill="#FFFFFF" d="M104.466,178.031l111.969,112.513l-111.969,111.97V178.031z M452.804,156.935
		l-137.92,137.39c-6.854,6.855-15.51,10.283-25.965,10.283c-10.817,0-19.836-3.609-27.056-10.828L125.018,156.935H452.804z
		 M474.445,402.514l-111.97-111.97l111.97-112.513V402.514z M124.473,423.609l112.514-111.969l4.87,4.87
		c12.986,12.622,28.672,18.934,47.062,18.934c18.39,0,33.895-6.312,46.518-18.934l4.87-4.87l112.497,111.969H124.473z M74.176,453.9
		h431.648V126.099H74.176V453.9z"/>
</g>
</svg>
