<?xml version="1.0" encoding="utf-8"?>
<!-- Generator: Adobe Illustrator 15.0.0, SVG Export Plug-In . SVG Version: 6.00 Build 0)  -->
<!DOCTYPE svg PUBLIC "-//W3C//DTD SVG 1.1//EN" "http://www.w3.org/Graphics/SVG/1.1/DTD/svg11.dtd">
<svg version="1.1" xmlns="http://www.w3.org/2000/svg" xmlns:xlink="http://www.w3.org/1999/xlink" x="0px" y="0px" width="580px"
	 height="580px" viewBox="0 0 580 580" enable-background="new 0 0 580 580" xml:space="preserve">
<g id="Layer_2">
	<g id="g1327">
		<path id="path1329" fill="#111111" stroke="#EEEEEE" stroke-width="3.408" d="M66.275,1.768
			c-41.335,0-64.571,21.371-64.571,65.036v450.123c0,40.844,20.894,62.229,62.192,62.229H515.92
			c41.307,0,62.229-20.316,62.229-62.229V66.804c0-42.601-20.923-65.036-63.522-65.036C514.624,1.768,66.133,1.625,66.275,1.768z"/>
	</g>
</g>
<g id="svg2" xmlns:inkscape="http://www.inkscape.org/namespaces/inkscape" xmlns:rdf="http://www.w3.org/1999/02/22-rdf-syntax-ns#" xmlns:svg="http://www.w3.org/2000/svg" xmlns:cc="http://creativecommons.org/ns#" xmlns:sodipodi="http://sodipodi.sourceforge.net/DTD/sodipodi-0.dtd" xmlns:dc="http://purl.org/dc/elements/1.1/" inkscape:output_extension="org.inkscape.output.svg.inkscape" inkscape:version="0.46" sodipodi:version="0.32" sodipodi:docname="waste_bin.svg">
	<g>
		<path fill="#FFFFFF" d="M86.808,94.447c-14.385,0-42.171,36.456-42.171,69.758c0,26.801,12.233,49.506,29.146,57.354
			l-3.501,189.25h33.05l-3.5-189.25c16.915-7.849,29.146-30.553,29.146-57.354C128.978,130.903,101.194,94.447,86.808,94.447z"/>
		<path fill="#FFFFFF" d="M259.455,190.297l-4.395-91.131c0-1.741-1.413-3.154-3.154-3.154h-2.07c-1.741,0-3.153,1.412-3.153,3.154
			l1.465,91.131h-9.103l-2.306-92.02c0-1.74-1.413-3.152-3.154-3.152h-2.693c-1.742,0-3.152,1.412-3.152,3.152l1.245,92.02h-11.294
			l1.246-92.02c0-1.74-1.41-3.152-3.152-3.152h-2.693c-1.742,0-3.155,1.412-3.155,3.152l-2.306,92.02h-8.911l1.463-91.121
			c0-1.741-1.41-3.152-3.151-3.152h-2.071c-1.742,0-3.154,1.412-3.154,3.152l-4.571,91.121c0,26.801,6.163,36.895,23.077,44.743
			l-3.502,175.77h33.05l-3.498-175.77C253.276,227.191,259.455,217.099,259.455,190.297z"/>
	</g>
	<path fill="#FFFFFF" d="M519.455,322.354h-0.136c0.154-0.135,0.24-0.27,0.24-0.406c0-3.212-43.853-5.814-97.947-5.814
		s-97.946,2.603-97.946,5.814c0,0.137,0.084,0.271,0.24,0.406h-0.24l86.806,80.348v90.915l-56.236,40.202h0.138
		c-0.271,0.146-0.414,0.296-0.414,0.444c0,2.22,30.29,4.017,67.655,4.017c37.363,0,67.654-1.797,67.654-4.017
		c0-0.148-0.144-0.298-0.414-0.444h0.032l-56.236-40.202v-90.915L519.455,322.354z M424.407,387.07
		c-1.565,1.449-4.128,1.449-5.693,0l-41.942-38.822c-1.566-1.448-1.102-2.635,1.033-2.635h87.512c2.134,0,2.599,1.186,1.031,2.635
		L424.407,387.07z"/>
	<g>
		<g>
			<path fill="#FFFFFF" d="M518.913,177.24h-15.686h-17.46H331.98v0c0,54.116,38.337,97.986,85.624,97.986
				c31.691,0,59.36-19.705,74.165-48.994h27.144c8.773,0,15.886-10.968,15.886-24.496
				C534.799,188.207,527.687,177.24,518.913,177.24z M518.913,218.069h-23.455c4.044-10.085,6.637-21.09,7.472-32.667h15.983
				c3.073,0,7.723,6.515,7.723,16.334C526.636,211.555,521.986,218.069,518.913,218.069z"/>
			<path fill="#FFFFFF" d="M468.955,154.723c-13.128-13.129-17.169-28.652-12.012-46.134c3.979-13.48,12.149-23.179,12.228-23.271
				l0.066-0.08c0.409-0.501,10.051-12.482,14.961-29.462c1.938-6.709,2.854-13.243,2.771-19.546h-8.189
				c0.072,5.448-0.726,11.126-2.407,17.025c-4.303,15.081-13.011,26.169-13.489,26.773c-0.788,0.932-9.336,11.27-13.739,25.959
				c-4.266,14.23-5.3,35.246,14,54.545L468.955,154.723z"/>
			<path fill="#FFFFFF" d="M418.983,154.723c-13.129-13.129-17.169-28.652-12.011-46.134c3.978-13.48,12.149-23.179,12.228-23.271
				l0.065-0.08c0.408-0.501,10.051-12.482,14.961-29.462c1.939-6.709,2.854-13.243,2.771-19.546h-8.188
				c0.069,5.448-0.727,11.126-2.41,17.025c-4.302,15.079-13.008,26.167-13.489,26.773c-0.786,0.93-9.334,11.268-13.738,25.959
				c-4.267,14.23-5.3,35.246,14,54.545L418.983,154.723z"/>
			<path fill="#FFFFFF" d="M369.011,154.723c-13.128-13.129-17.169-28.652-12.011-46.134c3.978-13.48,12.149-23.179,12.229-23.271
				l0.065-0.08c0.408-0.501,10.052-12.482,14.96-29.462c1.939-6.709,2.854-13.243,2.771-19.546h-8.188
				c0.07,5.448-0.727,11.126-2.409,17.025c-4.303,15.081-13.01,26.169-13.49,26.773c-0.789,0.932-9.335,11.27-13.738,25.959
				c-4.266,14.23-5.3,35.246,14,54.545L369.011,154.723z"/>
		</g>
	</g>
</g>
</svg>
