<?xml version="1.0" encoding="utf-8"?>
<!-- Generator: Adobe Illustrator 16.0.0, SVG Export Plug-In . SVG Version: 6.00 Build 0)  -->
<!DOCTYPE svg PUBLIC "-//W3C//DTD SVG 1.1//EN" "http://www.w3.org/Graphics/SVG/1.1/DTD/svg11.dtd">
<svg version="1.1" id="Ebene_1" xmlns="http://www.w3.org/2000/svg" xmlns:xlink="http://www.w3.org/1999/xlink" x="0px" y="0px"
	 width="580px" height="580px" viewBox="0 0 580 580" enable-background="new 0 0 580 580" xml:space="preserve">
<g>
	<defs>
		<rect id="SVGID_1_" width="580" height="580"/>
	</defs>
	<clipPath id="SVGID_2_">
		<use xlink:href="#SVGID_1_"  overflow="visible"/>
	</clipPath>
	<path clip-path="url(#SVGID_2_)" fill="#111111" d="M66.275,1.768c-41.335,0-64.571,21.371-64.571,65.036v450.123
		c0,40.845,20.895,62.229,62.192,62.229H515.92c41.307,0,62.229-20.315,62.229-62.229V66.804c0-42.601-20.926-65.036-63.521-65.036
		C514.624,1.768,66.133,1.625,66.275,1.768"/>
	<path clip-path="url(#SVGID_2_)" fill="#EEEEEE" d="M515.92,580.86H63.896c-20.963,0-37.043-5.484-47.791-16.301
		C5.418,553.805,0,537.779,0,516.927V66.804c0-43.662,22.917-66.74,66.275-66.74v0.028c0.519-0.039,1.239-0.042,2.269-0.045
		c1.493-0.005,3.699-0.009,6.553-0.013c5.706-0.008,14.004-0.015,24.376-0.02c103.392-0.049,412.972,0.049,415.144,0.05
		c21.567,0,38.04,5.741,48.971,17.063c10.793,11.18,16.266,27.894,16.266,49.677v450.123
		C579.854,559.35,558.343,580.86,515.92,580.86z M67.437,3.46l-0.005,0.012h-1.157c-20.36,0-36.035,5.267-46.591,15.654
		C8.884,29.754,3.408,45.795,3.408,66.804v450.123c0,40.162,20.351,60.525,60.488,60.525H515.92
		c40.728,0,60.525-19.798,60.525-60.525V66.804c0-42.024-20.799-63.332-61.817-63.332c-1.748,0-199.915-0.063-332.177-0.063
		C98.422,3.409,72.676,3.435,67.437,3.46z"/>
	<g clip-path="url(#SVGID_2_)">
		<path fill="#FFFFFF" d="M276.777,448.869l-7.985-20.596c-1.503-3.922-4.757-7.271-10.892-7.271h-11.276h-19.201h-11.412
			c-6.135,0-9.389,3.35-10.892,7.271l-7.977,20.596c-3.162,0.405-8.767,4.117-8.767,11.146v26.191h7.764v8.377
			c0,10.305,14.582,10.183,14.582,0v-8.377h26.233h0.009h26.233v8.377c0,10.183,14.583,10.305,14.583,0v-8.377h7.764v-26.191
			C285.544,452.986,279.939,449.274,276.777,448.869 M203.664,470.424c-3.72,0-6.734-3.11-6.734-6.947
			c0-3.834,3.014-6.938,6.734-6.938c3.721,0,6.735,3.104,6.735,6.938C210.399,467.313,207.385,470.424,203.664,470.424
			 M236.963,448.655h-0.008h-0.017h-31.539l6.012-16.207c0.751-2.277,1.876-3.921,4.507-3.946h21.02h0.017h0.008h21.029
			c2.63,0.025,3.757,1.669,4.507,3.946l6.013,16.207H236.963z M270.255,470.424c-3.721,0-6.743-3.11-6.743-6.947
			c0-3.834,3.022-6.938,6.743-6.938c3.72,0,6.735,3.104,6.735,6.938C276.99,467.313,273.975,470.424,270.255,470.424"/>
		<rect x="139.304" y="385.034" fill="#FFFFFF" width="194.102" height="12.173"/>
		<rect x="323.311" y="392.14" fill="#FFFFFF" width="10.094" height="109.818"/>
		<rect x="139.298" y="392.14" fill="#FFFFFF" width="10.093" height="109.818"/>
		<rect x="154.46" y="402.451" fill="#FFFFFF" width="163.193" height="48.465"/>
		<path fill="#111111" d="M321.653,454.916H150.46v-56.465h171.193V454.916z M158.46,446.916h155.193v-40.465H158.46V446.916z"/>
		<rect x="163.204" y="412.199" fill="#111111" width="145.429" height="4.301"/>
		<rect x="163.204" y="424.433" fill="#111111" width="145.429" height="4.301"/>
		<rect x="163.204" y="436.147" fill="#111111" width="145.429" height="4.301"/>
		<rect x="344.245" y="385.034" fill="#FFFFFF" width="194.102" height="12.173"/>
		<rect x="528.251" y="392.14" fill="#FFFFFF" width="10.093" height="109.818"/>
		<rect x="344.238" y="392.14" fill="#FFFFFF" width="10.093" height="109.818"/>
		<rect x="359.401" y="402.451" fill="#FFFFFF" width="163.192" height="104.82"/>
		<path fill="#111111" d="M526.594,511.271H355.401v-112.82h171.192V511.271z M363.401,503.271h155.192v-96.82H363.401V503.271z"/>
		<rect x="368.144" y="413.333" fill="#111111" width="145.43" height="4.301"/>
		<rect x="368.144" y="425.283" fill="#111111" width="145.43" height="4.301"/>
		<rect x="368.144" y="436.715" fill="#111111" width="145.43" height="4.301"/>
		<rect x="368.144" y="447.99" fill="#111111" width="145.43" height="4.301"/>
		<rect x="368.144" y="458.982" fill="#111111" width="145.43" height="4.301"/>
		<rect x="368.144" y="469.975" fill="#111111" width="145.43" height="4.301"/>
		<rect x="368.144" y="481.251" fill="#111111" width="145.43" height="4.301"/>
		<rect x="368.144" y="492.526" fill="#111111" width="145.43" height="4.301"/>
	</g>
	<path clip-path="url(#SVGID_2_)" fill="#FFFFFF" d="M44.716,415.642V45.766h139.523c24.558,0,43.312,1.178,56.264,3.532
		c18.165,3.028,33.388,8.789,45.667,17.283c12.278,8.494,22.16,20.395,29.646,35.7c7.483,15.307,11.227,32.127,11.228,50.461
		c-0.001,31.454-10.009,58.071-30.024,79.854c-20.017,21.782-56.18,32.673-108.49,32.673H93.663v150.373H44.716z M93.663,221.62
		h95.622c31.622,0.001,54.077-5.887,67.365-17.661c13.287-11.773,19.932-28.342,19.932-49.703c0-15.475-3.911-28.721-11.732-39.737
		c-7.821-11.018-18.124-18.292-30.906-21.824c-8.242-2.187-23.465-3.28-45.667-3.28H93.663V221.62z"/>
</g>
</svg>
