<?xml version="1.0" encoding="utf-8"?>
<!-- Generator: Adobe Illustrator 16.0.0, SVG Export Plug-In . SVG Version: 6.00 Build 0)  -->
<!DOCTYPE svg PUBLIC "-//W3C//DTD SVG 1.1//EN" "http://www.w3.org/Graphics/SVG/1.1/DTD/svg11.dtd">
<svg version="1.1" id="Ebene_1" xmlns="http://www.w3.org/2000/svg" xmlns:xlink="http://www.w3.org/1999/xlink" x="0px" y="0px"
	 width="580px" height="580px" viewBox="0 0 580 580" enable-background="new 0 0 580 580" xml:space="preserve">
<g>
	<defs>
		<rect id="SVGID_1_" width="580" height="580"/>
	</defs>
	<clipPath id="SVGID_2_">
		<use xlink:href="#SVGID_1_"  overflow="visible"/>
	</clipPath>
	<path clip-path="url(#SVGID_2_)" fill="#111111" d="M66.275,1.768c-41.335,0-64.571,21.371-64.571,65.036v450.123
		c0,40.845,20.894,62.229,62.192,62.229H515.92c41.307,0,62.229-20.316,62.229-62.229V66.804c0-42.601-20.924-65.036-63.522-65.036
		C514.624,1.768,66.133,1.625,66.275,1.768"/>
	<path clip-path="url(#SVGID_2_)" fill="#EEEEEE" d="M515.92,580.86H63.896c-20.964,0-37.043-5.484-47.792-16.301
		C5.418,553.806,0,537.779,0,516.927V66.804c0-43.662,22.917-66.74,66.275-66.74v0.028c0.519-0.039,1.239-0.042,2.269-0.045
		c1.493-0.005,3.699-0.009,6.553-0.013c5.706-0.008,14.004-0.015,24.376-0.02c103.438-0.048,413.251,0.049,415.146,0.05
		c21.565,0,38.039,5.741,48.97,17.063c10.792,11.179,16.265,27.893,16.265,49.677v450.123
		C579.854,559.35,558.343,580.86,515.92,580.86z M67.437,3.46l-0.005,0.012h-1.157c-20.36,0-36.035,5.267-46.591,15.654
		C8.884,29.754,3.408,45.795,3.408,66.804v450.123c0,40.162,20.351,60.525,60.488,60.525H515.92
		c40.728,0,60.525-19.798,60.525-60.525V66.804c0-42.024-20.799-63.332-61.818-63.332c-1.523,0-199.84-0.063-332.176-0.063
		C98.422,3.409,72.676,3.435,67.437,3.46z"/>
	<path clip-path="url(#SVGID_2_)" fill="#FFFFFF" d="M172.343,527.023h45.998c5.19,0,9.397-4.207,9.397-9.396V385.715h79.752
		c52.393,0,88.005-11.038,108.872-33.744c20.365-22.163,30.691-49.55,30.691-81.4c0-18.588-3.87-35.931-11.505-51.549
		c-7.718-15.78-18.133-28.278-30.956-37.15c-12.617-8.727-28.312-14.706-46.649-17.77c-12.843-2.327-30.665-3.458-54.484-3.458
		H172.343c-5.19,0-9.397,4.208-9.397,9.397v347.588C162.945,522.818,167.153,527.023,172.343,527.023 M365.273,311.669
		c-10.657,9.442-29.859,14.231-57.073,14.231h-80.462V220.456h79.513c24.855,0.001,35.746,1.506,40.412,2.743
		c9.957,2.751,17.77,8.276,23.886,16.891c6.25,8.805,9.289,19.24,9.291,31.902C380.838,289.411,375.746,302.389,365.273,311.669"/>
	<g clip-path="url(#SVGID_2_)">
		<path fill="#FFFFFF" d="M502.987,177.837c-2.222,0-4.474-0.549-6.553-1.707L290.95,61.757L83.489,175.479
			c-6.538,3.584-14.744,1.189-18.327-5.349c-3.584-6.538-1.189-14.744,5.349-18.327l214-117.307
			c4.07-2.231,8.999-2.214,13.055,0.042l212,118c6.515,3.626,8.856,11.847,5.23,18.361
			C512.327,175.336,507.728,177.837,502.987,177.837z"/>
	</g>
</g>
</svg>
