<?xml version="1.0" encoding="utf-8"?>
<!-- Generator: Adobe Illustrator 15.0.0, SVG Export Plug-In . SVG Version: 6.00 Build 0)  -->
<!DOCTYPE svg PUBLIC "-//W3C//DTD SVG 1.1//EN" "http://www.w3.org/Graphics/SVG/1.1/DTD/svg11.dtd">
<svg version="1.1" xmlns="http://www.w3.org/2000/svg" xmlns:xlink="http://www.w3.org/1999/xlink" x="0px" y="0px" width="580px"
	 height="580px" viewBox="0 0 580 580" enable-background="new 0 0 580 580" xml:space="preserve">
<g id="Layer_2_1_">
	<g id="Layer_2">
		<g id="g1327">
			<path id="path1329" fill="#111111" stroke="#EEEEEE" stroke-width="3.408" d="M66.275,1.768
				c-41.335,0-64.571,21.371-64.571,65.036v450.123c0,40.844,20.895,62.229,62.192,62.229h452.024
				c41.307,0,62.229-20.315,62.229-62.229V66.804c0-42.602-20.923-65.036-63.521-65.036C514.625,1.768,66.133,1.625,66.275,1.768z"
				/>
		</g>
	</g>
</g>
<g id="Layer_1">
	<g>
		<path fill="#FFFFFF" enable-background="new    " d="M369.997,198.698h-32.048h-24.845h-49.937h-25.093h-28.074
			c-34.286,0-61.613,28.072-61.613,62.359V388.01c0,27.43,17.614,50.47,42.235,58.633v19.627h21.862v-15.652h152.792v15.652h21.863
			v-18.882c25.717-7.582,44.471-31.119,44.471-59.378V261.057C431.611,226.77,404.285,198.698,369.997,198.698z M202.797,418.818
			c-10.759,0-19.379-8.62-19.379-19.379s8.62-19.626,19.379-19.626s19.378,8.867,19.378,19.626S213.555,418.818,202.797,418.818z
			 M372.481,418.818c-10.759,0-19.378-8.62-19.378-19.379s8.619-19.626,19.378-19.626s19.628,8.867,19.628,19.626
			S383.24,418.818,372.481,418.818z M403.537,338.819c0,13.042-11.306,23.354-24.347,23.354H196.088
			c-13.041,0-24.098-10.312-24.098-23.354v-86.457c0-13.042,11.057-23.354,24.098-23.354H379.19
			c13.041,0,24.347,10.312,24.347,23.354V338.819z"/>
		<path fill="#FFFFFF" enable-background="new    " d="M289.999,121.454c-114.867,0-208.318,93.451-208.318,208.318
			s93.451,208.318,208.318,208.318s208.318-93.451,208.318-208.318S404.866,121.454,289.999,121.454z M289.999,533.091
			c-112.11,0-203.318-91.208-203.318-203.318c0-112.11,91.208-203.318,203.318-203.318c112.11,0,203.318,91.208,203.318,203.318
			C493.317,441.883,402.109,533.091,289.999,533.091z"/>
		<rect x="51.496" y="41.909" fill="#FFFFFF" enable-background="new    " width="477.008" height="39.751"/>
	</g>
</g>
</svg>
