<?xml version="1.0" encoding="utf-8"?>
<!-- Generator: Adobe Illustrator 15.0.0, SVG Export Plug-In . SVG Version: 6.00 Build 0)  -->
<!DOCTYPE svg PUBLIC "-//W3C//DTD SVG 1.1//EN" "http://www.w3.org/Graphics/SVG/1.1/DTD/svg11.dtd">
<svg version="1.1" xmlns="http://www.w3.org/2000/svg" xmlns:xlink="http://www.w3.org/1999/xlink" x="0px" y="0px" width="580px"
	 height="580px" viewBox="0 0 580 580" enable-background="new 0 0 580 580" xml:space="preserve">
<g id="Layer_2_1_">
	<g id="Layer_2">
		<g id="g1327">
			<path id="path1329" fill="#111111" stroke="#EEEEEE" stroke-width="3.408" d="M66.275,1.768
				c-41.335,0-64.571,21.371-64.571,65.036v450.123c0,40.844,20.895,62.229,62.192,62.229h452.024
				c41.307,0,62.229-20.315,62.229-62.229V66.804c0-42.602-20.923-65.036-63.521-65.036C514.625,1.768,66.133,1.625,66.275,1.768z"
				/>
		</g>
	</g>
</g>
<g id="Layer_1">
	<g>
		<path fill="#FFFFFF" d="M526.881,68.574H53.119c-5.523,0-10,4.477-10,10v422.851c0,5.521,4.477,10,10,10h473.762
			c5.522,0,10-4.479,10-10V78.574C536.881,73.052,532.403,68.574,526.881,68.574z M516.881,491.426H63.119V88.574h453.762V491.426z"
			/>
		<path fill="#FFFFFF" d="M98.222,135.472c0.025,0,0.052,0,0.077,0c0.917-0.002,18.789-0.003,18.903-0.003
			c2.03,0,3.682,1.652,3.682,3.682c0,2.03-1.65,3.681-3.72,3.682c-7.103-0.18-13.044,5.46-13.224,12.587
			c-0.004,0.156-0.005,0.31-0.003,0.464c-0.001,0.115,0,0.231,0.001,0.348c0.12,7.132,5.957,12.814,13.132,12.697l0.131-0.001
			c2.03,0,3.682,1.652,3.682,3.682c0,2.03-1.65,3.681-3.72,3.682c-7.103-0.191-13.044,5.46-13.224,12.587
			c-0.007,0.297-0.005,0.592,0.008,0.884c0,0.127,0,0.255,0.004,0.383c0.18,7.131,6.113,12.769,13.25,12.587
			c2.03,0,3.682,1.652,3.682,3.682c0,2.03-1.65,3.681-3.72,3.682c-7.103-0.187-13.044,5.46-13.224,12.587
			c-0.009,0.351-0.003,0.699,0.015,1.044c0.244,7.073,6.153,12.638,13.246,12.465c2.03,0,3.682,1.652,3.682,3.682
			s-1.652,3.682-3.682,3.682c-0.114,0-17.791-0.001-18.876-0.003c-6.998-0.081-12.833,5.533-13.012,12.588
			c-0.181,7.131,5.453,13.059,12.584,13.241c0.177,0.004,0.317,0.008,19.304,0.008c12.167,0,22.635-7.4,27.146-17.936v4.385
			c0,7.134,5.783,12.917,12.917,12.917c6.292,0,11.526-4.5,12.676-10.456c1.15,5.956,6.384,10.456,12.676,10.456
			c7.134,0,12.917-5.783,12.917-12.917v-1.63c5.049,9.046,14.713,15.18,25.789,15.18c18.983,0,19.124-0.003,19.301-0.008
			c7.131-0.18,12.767-6.107,12.587-13.238c-0.177-7.021-5.923-12.591-12.906-12.591c-0.034,0-0.069,0-0.104,0
			c-1.059,0.002-18.766,0.003-18.878,0.003c-2.031,0-3.683-1.652-3.683-3.682s1.652-3.682,3.703-3.682
			c7.144,0.164,13.06-5.453,13.241-12.584c0.008-0.321,0.004-0.639-0.011-0.954c-0.196-7.119-6.138-12.761-13.25-12.557
			c-2.031,0-3.683-1.652-3.683-3.682s1.652-3.682,3.703-3.682c7.144,0.185,13.06-5.453,13.241-12.584
			c0.007-0.284,0.005-0.566-0.006-0.846c0.001-0.142,0-0.283-0.004-0.426c-0.182-7.131-6.135-12.771-13.25-12.584
			c-2.031,0-3.683-1.652-3.683-3.682s1.652-3.682,3.683-3.682l0.129,0.001c7.139,0.153,13.013-5.563,13.133-12.696
			c0.005-0.282,0-0.562-0.012-0.839c-0.193-7.121-6.151-12.74-13.25-12.562c-2.031,0-3.683-1.652-3.683-3.682
			s1.652-3.682,3.683-3.682c0.113,0,17.99,0.001,18.903,0.003c0.026,0,0.051,0,0.077,0c7.032,0,12.792-5.641,12.91-12.699
			c0.12-7.133-5.565-13.012-12.697-13.132c-0.188-0.003-6.645-0.005-19.193-0.005c-11.075,0-20.74,6.134-25.789,15.18v-0.691
			c0-7.134-5.783-12.917-12.917-12.917c-6.292,0-11.526,4.5-12.676,10.456c-1.15-5.956-6.384-10.456-12.676-10.456
			c-7.134,0-12.917,5.783-12.917,12.917v3.447c-4.511-10.535-14.979-17.936-27.146-17.936c-12.549,0-19.007,0.001-19.194,0.005
			c-7.133,0.121-12.817,6.001-12.696,13.133C85.431,129.833,91.19,135.473,98.222,135.472z M195.532,225.564v-4.836
			c0.461,0.828,0.947,1.641,1.483,2.418C196.479,223.923,195.994,224.736,195.532,225.564z M195.532,192.109v-5.19
			c0.496,0.891,1.021,1.764,1.604,2.595C196.553,190.345,196.029,191.219,195.532,192.109z M197.016,155.882
			c-0.537,0.777-1.022,1.59-1.483,2.418v-4.836C195.994,154.292,196.479,155.105,197.016,155.882z M141.506,223.146
			c1.117-1.617,2.062-3.358,2.842-5.186v10.372C143.568,226.505,142.623,224.763,141.506,223.146z M144.348,150.696v10.372
			c-0.78-1.828-1.725-3.569-2.842-5.186C142.623,154.264,143.568,152.523,144.348,150.696z M144.348,184.16v10.707
			c-0.808-1.892-1.795-3.688-2.962-5.354C142.553,187.849,143.54,186.052,144.348,184.16z"/>
		<path fill="#FFFFFF" d="M98.008,469.386c0.314,0.006,19.006,0.006,19.194,0.006c12.167,0,22.635-7.4,27.146-17.936v4.385
			c0,7.133,5.783,12.916,12.917,12.916c6.292,0,11.526-4.5,12.676-10.455c1.15,5.955,6.384,10.455,12.676,10.455
			c7.134,0,12.917-5.783,12.917-12.916v-1.629c5.049,9.045,14.713,15.18,25.789,15.18c0.188,0,18.877,0,19.193-0.006
			c7.132-0.119,12.817-5.998,12.697-13.131c-0.119-7.061-5.877-12.701-12.91-12.701c-0.025,0-0.051,0-0.077,0.002
			c-0.897,0.002-18.781,0.002-18.903,0.002c-2.031,0-3.683-1.65-3.683-3.682s1.652-3.682,3.703-3.684
			c7.144,0.18,13.06-5.451,13.241-12.584c0.004-0.156,0.005-0.313,0.003-0.467c0.001-0.115,0-0.232-0.001-0.35
			c-0.121-7.133-6.035-12.82-13.133-12.695l-0.129,0.002c-2.031,0-3.683-1.652-3.683-3.684c0-2.029,1.652-3.682,3.703-3.682
			c7.144,0.199,13.06-5.453,13.241-12.584c0.007-0.285,0.005-0.566-0.006-0.848c0.001-0.141,0-0.283-0.004-0.424
			c-0.179-7.021-5.934-12.59-12.916-12.59c-0.111,0-0.223,0.002-0.334,0.004c-2.031,0-3.683-1.65-3.683-3.682
			c0-2.029,1.652-3.682,3.703-3.682c7.144,0.191,13.06-5.453,13.241-12.584c0.008-0.32,0.004-0.639-0.011-0.955
			c-0.192-7.006-5.942-12.561-12.915-12.561c-0.111,0-0.223,0.002-0.334,0.004c-2.031,0-3.683-1.652-3.683-3.682
			c0-2.031,1.652-3.682,3.683-3.682c0.113,0,17.813,0,18.878,0.002c0.035,0.002,0.069,0.002,0.104,0.002
			c6.982-0.002,12.729-5.572,12.906-12.592c0.18-7.131-5.456-13.059-12.587-13.238c-0.178-0.004-0.318-0.008-19.301-0.008
			c-11.075,0-20.74,6.135-25.789,15.18v-0.691c0-7.133-5.783-12.916-12.917-12.916c-6.292,0-11.526,4.5-12.676,10.455
			c-1.15-5.955-6.384-10.455-12.676-10.455c-7.134,0-12.917,5.783-12.917,12.916v3.447c-4.511-10.535-14.979-17.936-27.146-17.936
			c-18.986,0-19.126,0.004-19.304,0.008c-7.131,0.182-12.766,6.109-12.584,13.24c0.179,7.021,5.925,12.59,12.906,12.59
			c0.035,0,0.07,0,0.105-0.002c1.079-0.002,18.763-0.002,18.876-0.002c2.03,0,3.682,1.65,3.682,3.682c0,2.029-1.65,3.68-3.72,3.682
			c-7.103-0.139-13.044,5.461-13.224,12.588c-0.009,0.35-0.003,0.699,0.015,1.043c0.241,6.963,5.972,12.469,12.915,12.469
			c0.11,0,0.221-0.002,0.332-0.004c2.03,0,3.682,1.652,3.682,3.682s-1.65,3.682-3.72,3.682c-0.106-0.002-0.211-0.004-0.317-0.004
			c-6.982,0-12.729,5.572-12.906,12.592c-0.007,0.297-0.005,0.592,0.008,0.885c0,0.127,0,0.254,0.004,0.381
			c0.177,7.021,5.935,12.592,12.918,12.592c0.11,0,0.221-0.002,0.332-0.004c2.03,0,3.682,1.652,3.682,3.682
			c0,2.031-1.652,3.684-3.674,3.684l-0.139-0.002c-7.156-0.148-13.011,5.566-13.131,12.697c-0.004,0.289,0,0.576,0.014,0.859
			c0.204,7.109,6.141,12.682,13.248,12.541c2.03,0,3.682,1.65,3.682,3.682s-1.652,3.682-3.682,3.682c-0.122,0-17.984,0-18.902-0.002
			c-0.026-0.002-0.052-0.002-0.078-0.002c-7.031,0-12.791,5.641-12.91,12.699C85.191,463.386,90.875,469.265,98.008,469.386z
			 M195.532,425.564v-4.836c0.461,0.828,0.947,1.643,1.483,2.418C196.479,423.924,195.994,424.736,195.532,425.564z
			 M195.532,392.109v-5.191c0.496,0.893,1.021,1.766,1.604,2.596C196.553,390.345,196.029,391.219,195.532,392.109z
			 M197.016,355.883c-0.537,0.775-1.022,1.59-1.483,2.418v-4.836C195.994,354.293,196.479,355.105,197.016,355.883z
			 M141.506,423.146c1.117-1.617,2.062-3.357,2.842-5.186v10.373C143.568,426.506,142.623,424.763,141.506,423.146z
			 M144.348,350.695v10.373c-0.78-1.828-1.725-3.568-2.842-5.186C142.623,354.265,143.568,352.523,144.348,350.695z M144.348,384.16
			v10.707c-0.808-1.891-1.795-3.688-2.962-5.354C142.553,387.849,143.54,386.052,144.348,384.16z"/>
		<path fill="#FFFFFF" d="M336.008,469.386c0.314,0.006,19.006,0.006,19.194,0.006c12.165,0,22.634-7.4,27.146-17.934v4.383
			c0,7.133,5.783,12.916,12.917,12.916c6.29,0,11.524-4.498,12.676-10.453c1.151,5.955,6.386,10.453,12.676,10.453
			c7.134,0,12.917-5.783,12.917-12.916v-1.631c5.049,9.047,14.714,15.182,25.788,15.182c0.188,0,18.877,0,19.192-0.006
			c7.133-0.119,12.817-5.998,12.698-13.131c-0.119-7.061-5.878-12.701-12.911-12.701c-0.024,0-0.051,0-0.076,0.002
			c-0.897,0.002-18.781,0.002-18.903,0.002c-2.03,0-3.682-1.65-3.682-3.682s1.651-3.682,3.705-3.684
			c7.091,0.182,13.058-5.455,13.237-12.586c0.004-0.156,0.006-0.311,0.004-0.465c0.001-0.115,0.001-0.23-0.001-0.348
			c-0.119-7.059-5.878-12.699-12.911-12.699c-0.073,0-0.147,0-0.221,0.002l-0.132,0.002c-2.03,0-3.682-1.652-3.682-3.684
			c0-2.029,1.651-3.682,3.705-3.682c7.091,0.186,13.058-5.455,13.237-12.588c0.008-0.297,0.005-0.59-0.007-0.883
			c0-0.127-0.001-0.254-0.004-0.383c-0.178-7.021-5.935-12.592-12.918-12.592c-0.11,0-0.222,0.002-0.332,0.004
			c-2.03,0-3.682-1.65-3.682-3.682c0-2.029,1.651-3.682,3.705-3.682c7.091,0.189,13.058-5.455,13.237-12.588
			c0.009-0.35,0.004-0.699-0.015-1.043c-0.24-6.963-5.972-12.469-12.914-12.469c-0.11,0-0.222,0.002-0.332,0.004
			c-2.03,0-3.682-1.652-3.682-3.682c0-2.031,1.651-3.682,3.682-3.682c0.112,0,17.813,0,18.878,0.002
			c0.035,0.002,0.069,0.002,0.104,0.002c6.982-0.002,12.729-5.572,12.906-12.592c0.18-7.131-5.455-13.059-12.587-13.238
			c-0.177-0.004-0.317-0.008-19.301-0.008c-11.074,0-20.739,6.135-25.788,15.18v-0.691c0-7.133-5.783-12.916-12.917-12.916
			c-6.29,0-11.524,4.498-12.676,10.453c-1.151-5.955-6.386-10.453-12.676-10.453c-7.134,0-12.917,5.783-12.917,12.916v3.445
			c-4.512-10.533-14.98-17.934-27.146-17.934c-18.986,0-19.126,0.004-19.304,0.008c-7.131,0.182-12.766,6.109-12.584,13.24
			c0.179,7.057,5.946,12.654,13.011,12.588c1.079-0.002,18.764-0.002,18.877-0.002c2.03,0,3.682,1.65,3.682,3.682
			c0,2.029-1.65,3.68-3.719,3.682c-0.106-0.002-0.212-0.004-0.317-0.004c-6.982,0-12.729,5.57-12.906,12.592
			c-0.009,0.35-0.004,0.699,0.015,1.043c0.24,6.963,5.972,12.469,12.914,12.469c0.11,0,0.222-0.002,0.332-0.004
			c2.03,0,3.682,1.652,3.682,3.682s-1.65,3.682-3.719,3.682c-0.106-0.002-0.212-0.004-0.317-0.004
			c-6.982,0-12.729,5.572-12.906,12.592c-0.008,0.297-0.005,0.592,0.007,0.885c0,0.127,0.001,0.254,0.004,0.381
			c0.178,7.021,5.935,12.592,12.918,12.592c0.11,0,0.222-0.002,0.332-0.004c2.03,0,3.682,1.652,3.682,3.682
			c0,2.031-1.651,3.684-3.674,3.684l-0.14-0.002c-0.074-0.002-0.147-0.002-0.221-0.002c-7.033,0-12.791,5.641-12.909,12.699
			c-0.005,0.289,0,0.576,0.014,0.859c0.201,7,5.948,12.545,12.916,12.545c0.11,0,0.222-0.002,0.332-0.004
			c2.03,0,3.682,1.65,3.682,3.682s-1.651,3.682-3.682,3.682c-0.122,0-17.983,0-18.902-0.002c-0.025-0.002-0.052-0.002-0.077-0.002
			c-7.031,0-12.791,5.641-12.91,12.699C323.191,463.386,328.875,469.265,336.008,469.386z M433.533,425.564v-4.836
			c0.461,0.828,0.947,1.643,1.483,2.418C434.48,423.924,433.994,424.736,433.533,425.564z M433.533,392.109v-5.191
			c0.496,0.893,1.021,1.766,1.604,2.596C434.553,390.345,434.029,391.219,433.533,392.109z M435.017,355.883
			c-0.537,0.777-1.022,1.59-1.484,2.418v-4.838C433.995,354.291,434.48,355.105,435.017,355.883z M379.507,423.146
			c1.116-1.615,2.061-3.357,2.841-5.184v10.367C381.567,426.504,380.623,424.763,379.507,423.146z M382.347,350.697v10.371
			c-0.78-1.828-1.726-3.57-2.842-5.186C380.622,354.265,381.567,352.523,382.347,350.697z M382.347,384.164v10.701
			c-0.808-1.891-1.794-3.688-2.961-5.352C380.553,387.849,381.54,386.052,382.347,384.164z"/>
		<path fill="#FFFFFF" d="M336.222,139.472c0.025,0,0.051,0,0.077,0c0.917-0.002,18.788-0.003,18.902-0.003
			c2.03,0,3.682,1.652,3.682,3.682c0,2.03-1.65,3.681-3.719,3.682c-0.106-0.003-0.212-0.004-0.317-0.004
			c-6.982,0-12.729,5.571-12.906,12.591c-0.004,0.156-0.006,0.31-0.004,0.464c-0.001,0.115-0.001,0.231,0.001,0.348
			c0.12,7.132,6.002,12.828,13.132,12.697l0.132-0.001c2.03,0,3.682,1.652,3.682,3.682c0,2.03-1.65,3.681-3.719,3.682
			c-0.106-0.003-0.212-0.004-0.317-0.004c-6.982,0-12.729,5.571-12.906,12.591c-0.008,0.297-0.005,0.592,0.007,0.884
			c0,0.127,0.001,0.255,0.004,0.383c0.181,7.132,6.16,12.763,13.25,12.587c2.03,0,3.682,1.652,3.682,3.682
			c0,2.03-1.65,3.681-3.719,3.682c-0.106-0.003-0.212-0.004-0.317-0.004c-6.982,0-12.729,5.571-12.906,12.591
			c-0.009,0.351-0.004,0.699,0.015,1.044c0.244,7.074,6.199,12.667,13.246,12.465c2.03,0,3.682,1.652,3.682,3.682
			s-1.651,3.682-3.682,3.682c-0.113,0-17.791-0.001-18.876-0.003c-0.035,0-0.07,0-0.105,0c-6.981,0-12.729,5.569-12.906,12.588
			c-0.182,7.131,5.453,13.059,12.584,13.241c0.178,0.004,0.317,0.008,19.304,0.008c12.165,0,22.634-7.4,27.146-17.934v4.384
			c0,7.134,5.783,12.917,12.917,12.917c6.29,0,11.524-4.499,12.676-10.453c1.151,5.954,6.386,10.453,12.676,10.453
			c7.134,0,12.917-5.783,12.917-12.917v-1.63c5.049,9.046,14.714,15.18,25.788,15.18c18.983,0,19.124-0.003,19.301-0.008
			c7.132-0.18,12.767-6.107,12.587-13.238c-0.178-7.055-6-12.677-13.009-12.59c-1.06,0.002-18.766,0.003-18.879,0.003
			c-2.03,0-3.682-1.652-3.682-3.682s1.651-3.682,3.705-3.682c7.091,0.156,13.058-5.456,13.237-12.587
			c0.009-0.351,0.004-0.699-0.015-1.044c-0.244-7.074-6.201-12.661-13.246-12.465c-2.03,0-3.682-1.652-3.682-3.682
			s1.651-3.682,3.705-3.682c7.091,0.161,13.058-5.456,13.237-12.587c0.008-0.297,0.005-0.592-0.007-0.884
			c0-0.127-0.001-0.255-0.004-0.383c-0.181-7.132-6.156-12.776-13.25-12.587c-2.03,0-3.682-1.652-3.682-3.682
			s1.651-3.682,3.682-3.682l0.132,0.001c7.173,0.138,13.011-5.565,13.132-12.697c0.005-0.313-0.001-0.624-0.018-0.931
			c-0.242-7.076-6.172-12.658-13.246-12.469c-2.03,0-3.682-1.652-3.682-3.682s1.651-3.682,3.682-3.682
			c0.113,0,17.99,0.001,18.903,0.003c0.025,0,0.051,0,0.076,0c7.033,0,12.792-5.641,12.911-12.699
			c0.119-7.133-5.565-13.012-12.698-13.132c-0.188-0.003-6.645-0.005-19.192-0.005c-11.074,0-20.739,6.134-25.788,15.18v-0.691
			c0-7.134-5.783-12.917-12.917-12.917c-6.29,0-11.524,4.499-12.676,10.453c-1.151-5.954-6.386-10.453-12.676-10.453
			c-7.134,0-12.917,5.783-12.917,12.917v3.445c-4.512-10.534-14.98-17.934-27.146-17.934c-12.549,0-19.007,0.001-19.194,0.005
			c-7.133,0.121-12.816,6.001-12.695,13.133C323.431,133.833,329.19,139.473,336.222,139.472z M433.533,229.566v-4.839
			c0.462,0.829,0.947,1.642,1.484,2.419C434.48,227.924,433.995,228.737,433.533,229.566z M433.533,196.109v-5.19
			c0.496,0.891,1.021,1.764,1.604,2.595C434.553,194.345,434.029,195.219,433.533,196.109z M435.017,159.882
			c-0.537,0.777-1.022,1.59-1.484,2.419v-4.839C433.995,158.291,434.48,159.104,435.017,159.882z M379.506,227.146
			c1.116-1.617,2.062-3.358,2.842-5.186v10.371C381.567,230.504,380.622,228.763,379.506,227.146z M382.347,154.696v10.371
			c-0.78-1.828-1.726-3.569-2.842-5.186C380.622,158.265,381.567,156.524,382.347,154.696z M382.347,188.163v10.702
			c-0.808-1.89-1.794-3.687-2.961-5.351C380.553,191.85,381.54,190.053,382.347,188.163z"/>
	</g>
</g>
</svg>
