<?xml version="1.0" encoding="utf-8"?>
<!-- Generator: Adobe Illustrator 15.0.0, SVG Export Plug-In . SVG Version: 6.00 Build 0)  -->
<!DOCTYPE svg PUBLIC "-//W3C//DTD SVG 1.1//EN" "http://www.w3.org/Graphics/SVG/1.1/DTD/svg11.dtd">
<svg version="1.1" xmlns="http://www.w3.org/2000/svg" xmlns:xlink="http://www.w3.org/1999/xlink" x="0px" y="0px" width="580px"
	 height="580px" viewBox="0 0 580 580" enable-background="new 0 0 580 580" xml:space="preserve">
<g id="Layer_2_1_">
	<g id="Layer_2">
		<g id="g1327">
			<path id="path1329" fill="#111111" stroke="#EEEEEE" stroke-width="3.408" d="M66.275,1.768
				c-41.335,0-64.571,21.371-64.571,65.036v450.123c0,40.844,20.895,62.229,62.192,62.229h452.024
				c41.307,0,62.229-20.315,62.229-62.229V66.804c0-42.602-20.923-65.036-63.521-65.036C514.625,1.768,66.133,1.625,66.275,1.768z"
				/>
		</g>
	</g>
</g>
<g id="Layer_1">
	<path id="flowRoot6828" fill="#FFFFFF" d="M85.008,72.667c0-7.665,2.485-13.945,7.452-18.842
		c4.968-4.896,11.355-7.345,19.162-7.345c8.375,0,15.329,2.591,20.865,7.771c5.536,5.18,8.303,11.036,8.303,17.564
		c0,4.827-1.1,9.652-3.299,14.478c-2.2,4.827-5.678,8.694-10.433,11.604c-4.755,2.909-9.616,4.365-14.584,4.365
		c-6.813,0-13.093-2.911-18.842-8.729C87.883,87.712,85.008,80.758,85.008,72.667L85.008,72.667z M55.201,326.664l-0.426-13.839
		l24.059-3.193c3.549-0.994,5.997-2.449,7.345-4.364c1.349-1.916,2.023-6.21,2.023-12.882v-2.341c0-1.703,0.107-4.791,0.319-9.261
		c0.213-4.471,0.32-8.41,0.32-11.816c0-2.697-0.213-7.877-0.639-15.542l0.213-10.646l-0.213-10.006l0.426-34.704
		c0-4.401-0.426-8.942-1.277-13.626c-1.562-2.13-4.4-3.974-8.517-5.536c-4.117-1.561-11.284-2.697-21.503-3.407v-11.923
		c14.62-0.851,27.465-3.903,38.536-9.155c7.523-3.406,15.684-9.439,24.484-18.097h14.266c0.567,17.6,0.852,40.452,0.852,68.556
		l-1.491,86.866c0,5.961,0.284,11.354,0.852,16.18c4.401,1.563,11.568,3.124,21.503,4.685c3.833,0.568,6.885,1.277,9.156,2.13
		l-0.214,11.709c-3.832,0.143-6.67,0.213-8.516,0.213c-2.129,0-5.393-0.141-9.794-0.425c-14.477-0.71-33.852-1.065-58.123-1.065
		c-6.956,0-13.697,0.249-20.226,0.745C62.086,326.416,57.615,326.664,55.201,326.664L55.201,326.664z"/>
	<g>
		<path fill="#FFFFFF" d="M510.744,399.143h-74.795c1.532-3.913,2.381-8.166,2.381-12.622V349.89l-2.733-33.381
			c-5.264-12.412-17.563-21.121-31.896-21.121h-72.903c-14.333,0-26.631,8.709-31.896,21.122l-2.732,33.379v36.632
			c0,4.456,0.849,8.709,2.381,12.622h-74.794v25.321v10.13v87.784h11.817v-87.784h263.353v87.784h11.815v-87.784h0.002V399.143z
			 M410.992,341.866v57.277h-8.201v-57.277H410.992z M323.507,341.866h8.203v57.277h-8.203V341.866z"/>
		<circle fill="#FFFFFF" cx="367.25" cy="238.288" r="42.375"/>
	</g>
</g>
</svg>
