<?xml version="1.0" encoding="utf-8"?>
<!-- Generator: Adobe Illustrator 15.0.0, SVG Export Plug-In . SVG Version: 6.00 Build 0)  -->
<!DOCTYPE svg PUBLIC "-//W3C//DTD SVG 1.1//EN" "http://www.w3.org/Graphics/SVG/1.1/DTD/svg11.dtd">
<svg version="1.1" xmlns="http://www.w3.org/2000/svg" xmlns:xlink="http://www.w3.org/1999/xlink" x="0px" y="0px" width="580px"
	 height="580px" viewBox="0 0 580 580" enable-background="new 0 0 580 580" xml:space="preserve">
<g id="Layer_2_1_">
	<g id="Layer_2">
		<g id="g1327">
			<path id="path1329" fill="#111111" stroke="#EEEEEE" stroke-width="3.408" d="M66.275,1.768
				c-41.335,0-64.571,21.371-64.571,65.036v450.123c0,40.844,20.895,62.229,62.192,62.229h452.024
				c41.307,0,62.229-20.315,62.229-62.229V66.804c0-42.602-20.923-65.036-63.521-65.036C514.625,1.768,66.133,1.625,66.275,1.768z"
				/>
		</g>
	</g>
</g>
<g id="Layer_1">
	<g>
		<path fill="#FFFFFF" d="M552.396,251.942L294.239,23.858c-2.421-2.138-6.057-2.139-8.479,0L27.603,251.942
			c-1.995,1.763-2.691,4.575-1.749,7.064c0.942,2.49,3.327,4.137,5.988,4.137h45.228v288.201c0,3.536,2.867,6.402,6.403,6.402
			h154.895c3.536,0,6.403-2.866,6.403-6.402V383.881h93.998l0.001,167.463c0,3.536,2.866,6.402,6.402,6.402h151.354
			c3.536,0,6.402-2.866,6.402-6.402V263.143h45.229c2.662,0,5.046-1.647,5.988-4.137
			C555.088,256.517,554.391,253.704,552.396,251.942z M496.525,250.337c-3.536,0-6.402,2.867-6.402,6.403v288.201H351.574
			l-0.001-167.463c0-3.536-2.866-6.402-6.402-6.402H238.368c-3.536,0-6.403,2.866-6.403,6.402v167.463H89.876V256.74
			c0-3.536-2.867-6.403-6.403-6.403H48.76L290,37.199l241.24,213.138H496.525z"/>
		<path fill="#FFFFFF" d="M435.301,323.707c5.391-0.703,9.422-1.828,12.094-3.375c4.313-2.484,7.711-5.859,10.195-10.125
			s3.727-9.07,3.727-14.414c0-6.563-1.746-12.012-5.238-16.348s-8.941-7.395-16.348-9.176c4.875-1.688,8.578-3.984,11.109-6.891
			c3.797-4.359,5.695-9.586,5.695-15.68c0-7.266-2.66-13.359-7.98-18.281s-12.949-7.383-22.887-7.383h-59.625v103.078h54.984
			C423.371,325.113,428.129,324.644,435.301,323.707z M398.176,242.918h14.063c4.828,0,8.215,0.844,10.16,2.531
			s2.918,4.031,2.918,7.031c0,3.234-0.973,5.707-2.918,7.418s-5.402,2.566-10.371,2.566h-13.852V242.918z M398.176,302.965v-20.883
			h16.172c5.578,0,9.48,0.926,11.707,2.777s3.34,4.301,3.34,7.348c0,3.281-1.125,5.895-3.375,7.84s-6.117,2.918-11.602,2.918
			H398.176z"/>
		<path fill="#FFFFFF" d="M199.824,270.269c4.875-1.688,8.578-3.984,11.109-6.891c3.797-4.359,5.695-9.586,5.695-15.68
			c0-7.266-2.66-13.359-7.98-18.281s-12.949-7.383-22.887-7.383h-59.625v103.078h54.984c2.344,0,7.102-0.469,14.273-1.406
			c5.391-0.703,9.422-1.828,12.094-3.375c4.313-2.484,7.711-5.859,10.195-10.125s3.727-9.07,3.727-14.414
			c0-6.563-1.746-12.012-5.238-16.348S207.23,272.051,199.824,270.269z M158.269,242.918h14.063c4.828,0,8.215,0.844,10.16,2.531
			s2.918,4.031,2.918,7.031c0,3.234-0.973,5.707-2.918,7.418s-5.402,2.566-10.371,2.566h-13.852V242.918z M186.113,300.047
			c-2.25,1.945-6.117,2.918-11.602,2.918h-16.242v-20.883h16.172c5.578,0,9.48,0.926,11.707,2.777s3.34,4.301,3.34,7.348
			C189.488,295.488,188.363,298.101,186.113,300.047z"/>
		<path fill="#FFFFFF" d="M261.98,227.379c-5.578,4.734-8.367,10.758-8.367,18.07c0,3.469,0.703,6.879,2.109,10.23
			s3.984,7.301,7.734,11.848c-8.953,3.609-15.398,8.027-19.336,13.254s-5.906,10.77-5.906,16.629
			c0,8.156,3.352,15.094,10.055,20.813s16.922,8.578,30.656,8.578c8.766,0,16.594-1.031,23.484-3.094
			c4.969-1.5,9.938-3.891,14.906-7.172c2.391,1.406,5.098,3.094,8.121,5.063s5.941,3.703,8.754,5.203l15.398-17.719
			c-2.063-1.172-3.75-2.18-5.063-3.023l-10.758-7.383c1.969-3.375,3.492-6.305,4.57-8.789s2.203-5.789,3.375-9.914l-22.359-4.992
			c-1.031,3.234-2.273,6.305-3.727,9.211c-5.438-4.313-10.664-8.977-15.68-13.992c6.047-3.984,10.242-6.984,12.586-9
			s4.348-4.641,6.012-7.875s2.496-6.609,2.496-10.125c0-6.281-2.719-11.672-8.156-16.172s-13.945-6.75-25.523-6.75
			C276.019,220.277,267.558,222.644,261.98,227.379z M282.441,308.449c-4.734,0-8.578-1.336-11.531-4.008s-4.43-5.719-4.43-9.141
			c0-2.203,0.645-4.289,1.934-6.258s3.902-4.336,7.84-7.102c9.516,9,17.32,15.844,23.414,20.531
			C293.293,306.457,287.551,308.449,282.441,308.449z M295.519,238.031c1.688,1.523,2.531,3.387,2.531,5.59
			c0,2.109-1.008,4.348-3.023,6.715s-4.875,4.559-8.578,6.574c-5.156-5.531-7.734-9.75-7.734-12.656
			c0-2.297,0.914-4.289,2.742-5.977s4.195-2.531,7.102-2.531C291.511,235.746,293.832,236.508,295.519,238.031z"/>
	</g>
</g>
</svg>
