<?xml version="1.0" encoding="utf-8"?>
<!-- Generator: Adobe Illustrator 15.0.0, SVG Export Plug-In . SVG Version: 6.00 Build 0)  -->
<!DOCTYPE svg PUBLIC "-//W3C//DTD SVG 1.1//EN" "http://www.w3.org/Graphics/SVG/1.1/DTD/svg11.dtd">
<svg version="1.1" xmlns="http://www.w3.org/2000/svg" xmlns:xlink="http://www.w3.org/1999/xlink" x="0px" y="0px" width="580px"
	 height="580px" viewBox="0 0 580 580" enable-background="new 0 0 580 580" xml:space="preserve">
<g id="Layer_2_1_">
	<g id="Layer_2">
		<g id="g1327">
			<path id="path1329" fill="#111111" stroke="#EEEEEE" stroke-width="3.408" d="M66.275,1.768
				c-41.335,0-64.571,21.371-64.571,65.036v450.123c0,40.844,20.895,62.229,62.192,62.229h452.024
				c41.307,0,62.229-20.315,62.229-62.229V66.804c0-42.602-20.923-65.036-63.521-65.036C514.625,1.768,66.133,1.625,66.275,1.768z"
				/>
		</g>
	</g>
</g>
<g id="Layer_1">
	<g>
		<path fill="#FFFFFF" d="M386.74,329.448l-26.564-14.866l-38.116-46.031c-5.268-6.194-12.706-10.066-22.313-11.618
			c-16.729-2.478-29.278,3.409-37.647,17.661l-42.301,72.983c-2.79,4.652-4.029,10.384-3.717,17.192l1.391,92.502l-32.073,68.799
			c-1.239,2.79-2.01,5.111-2.313,6.965c-0.937,5.892,0.301,11.084,3.71,15.575c3.409,4.492,8.06,7.207,13.951,8.143
			c9.91,1.542,16.88-1.867,20.909-10.228l35.335-75.31c1.239-2.79,1.858-5.73,1.858-8.823l-0.468-57.181l35.845,48.426
			l10.368,85.147c1.248,9.296,6.828,14.715,16.739,16.257c6.817,0.936,12.783-0.998,17.895-5.802
			c5.111-4.805,7.203-10.616,6.276-17.435l-12.24-96.751c-1.239-7.131-5.561-11.445-9.687-17.198l-31.733-44.25l30.683-53.449
			l15.335,19.519c1.238,1.863,3.102,3.258,5.589,4.185l30.582,14.853v179.932c0,3.553,2.881,6.434,6.434,6.434
			s6.434-2.881,6.434-6.434V360.726c2.345-0.813,4.464-2.246,6.351-4.319c3.102-3.409,4.652-7.284,4.652-11.625
			C397.903,337.037,394.181,331.926,386.74,329.448z"/>
		<path fill="#FFFFFF" d="M197.952,341.065c5.268,3.103,9.296,2.02,12.086-3.248l46.485-79.948
			c3.102-5.268,2.019-9.296-3.248-12.086l-14.881-8.838c-5.268-3.092-9.296-2.004-12.086,3.263l-46.485,79.949
			c-3.092,5.268-2.005,9.296,3.263,12.086L197.952,341.065z"/>
		<path fill="#FFFFFF" d="M318.81,252.748c8.369,0,15.651-3.021,21.846-9.064s9.291-13.4,9.291-22.072
			c0-8.369-3.097-15.653-9.291-21.853c-6.194-6.198-13.477-9.298-21.846-9.298c-8.681,0-16.043,3.1-22.086,9.298
			c-6.043,6.199-9.064,13.483-9.064,21.853c0,8.672,3.021,16.029,9.064,22.072S310.13,252.748,318.81,252.748z"/>
		<path fill="#FFFFFF" d="M557.968,169.486c-0.549-3.574-2.751-6.681-5.941-8.382L295.398,24.237c-3.374-1.8-7.424-1.8-10.797,0
			L27.973,161.104c-3.206,1.71-5.413,4.837-5.948,8.431c-0.536,3.594,0.663,7.229,3.231,9.8l17.098,17.113
			c3.254,3.257,8.142,4.252,12.414,2.528l19.15-7.739v287.455c0,6.949,5.633,12.583,12.583,12.583h31.996
			c6.949,0,12.583-5.634,12.583-12.583V170.561c0-0.798-0.083-1.575-0.225-2.332l7.835-3.166l151.207-17.895l150.872,18.157
			l5.526,2.229c-0.237,0.965-0.377,1.968-0.377,3.006v308.131c0,6.949,5.634,12.583,12.583,12.583h31.996
			c6.949,0,12.583-5.634,12.583-12.583V190.46l22.074,8.904c1.391,0.561,2.846,0.833,4.288,0.833c3.021,0,5.988-1.194,8.188-3.435
			l17.183-17.498C557.346,176.684,558.515,173.06,557.968,169.486z"/>
	</g>
</g>
</svg>
