<?xml version="1.0" encoding="utf-8"?>
<!-- Generator: Adobe Illustrator 15.0.0, SVG Export Plug-In . SVG Version: 6.00 Build 0)  -->
<!DOCTYPE svg PUBLIC "-//W3C//DTD SVG 1.1//EN" "http://www.w3.org/Graphics/SVG/1.1/DTD/svg11.dtd">
<svg version="1.1" xmlns="http://www.w3.org/2000/svg" xmlns:xlink="http://www.w3.org/1999/xlink" x="0px" y="0px" width="580px"
	 height="580px" viewBox="0 0 580 580" enable-background="new 0 0 580 580" xml:space="preserve">
<g id="Layer_2_1_">
	<g id="Layer_2">
		<g id="g1327">
			<path id="path1329" fill="#111111" stroke="#EEEEEE" stroke-width="3.408" d="M66.275,1.768
				c-41.335,0-64.571,21.371-64.571,65.036v450.123c0,40.844,20.895,62.229,62.192,62.229h452.024
				c41.307,0,62.229-20.315,62.229-62.229V66.804c0-42.602-20.923-65.036-63.521-65.036C514.625,1.768,66.133,1.625,66.275,1.768z"
				/>
		</g>
	</g>
</g>
<g id="Layer_1">
	<path fill="#FFFFFF" d="M506.692,520.521l0.713-0.006l-10.928-19.285L306.306,140.55l35.603-67.259l-23.227-12.295l-27.214,51.411
		L263.1,58.603L239.854,70.86l36.008,68.293C260.367,171.226,154.37,369.408,83.036,501.969l-10.441,19.403l94.237-0.156
		l23.41,0.181l0.115-0.22l202.598-0.336l0.292,0.556l91.768-0.708l21.747-0.036L506.692,520.521z M291.743,286.861
		c21.655,72.987,67.317,167.251,87.689,207.723l-175.522,0.29C224.207,454.566,270.036,360.026,291.743,286.861z"/>
</g>
</svg>
