<?xml version="1.0" encoding="utf-8"?>
<!-- Generator: Adobe Illustrator 15.0.0, SVG Export Plug-In . SVG Version: 6.00 Build 0)  -->
<!DOCTYPE svg PUBLIC "-//W3C//DTD SVG 1.1//EN" "http://www.w3.org/Graphics/SVG/1.1/DTD/svg11.dtd">
<svg version="1.1" xmlns="http://www.w3.org/2000/svg" xmlns:xlink="http://www.w3.org/1999/xlink" x="0px" y="0px" width="580px"
	 height="580px" viewBox="0 0 580 580" enable-background="new 0 0 580 580" xml:space="preserve">
<g id="Layer_2_1_">
	<g id="Layer_2">
		<g id="g1327">
			<path id="path1329" fill="#111111" stroke="#EEEEEE" stroke-width="3.408" d="M66.275,1.768
				c-41.335,0-64.571,21.371-64.571,65.036v450.123c0,40.844,20.895,62.229,62.192,62.229h452.024
				c41.307,0,62.229-20.315,62.229-62.229V66.804c0-42.602-20.923-65.036-63.521-65.036C514.625,1.768,66.133,1.625,66.275,1.768z"
				/>
		</g>
	</g>
</g>
<g id="Layer_1">
	<path fill="#FFFFFF" stroke="#FFFFFF" stroke-width="0.8524" d="M549.315,496.963c-46.307-98.523-92.876-196.895-139.393-295.299
		l-7.385-15.693l-7.386,15.693l-5.949,12.616c-20.653,43.789-41.39,87.56-62.157,131.291c-3.198-4.396-6.402-8.785-9.604-13.176
		V211.617h32.489L187.486,71.241L25.043,211.617h32.488v210.564h97.467V315.176h67.205v88.539
		c-18.565,29.838-37.156,59.648-55.885,89.35l-7.795,12.412l14.667,0.102c122.882,1.043,245.763,2.02,368.638,3.078l13.129,0.102
		L549.315,496.963z M510.749,488.758l-302.172-2.564c-2.885-0.039-5.688-1.676-7.077-4.205s-1.31-5.854,0.205-8.309l32.083-51.498
		h83.653v-48.627c2.969-0.4,6.192,0.748,7.964,3.195l5.23,7.182l21.54-45.543c1.26-2.752,4.154-4.715,7.18-4.82
		s6.039,1.65,7.487,4.309c2.132,3.867,4.256,6.023,5.847,6.975c1.592,0.951,2.62,1.121,4.514,0.719
		c3.786-0.807,11.088-5.996,18.667-17.027c1.476-2.17,4.044-3.553,6.668-3.59c2.484,0.006,4.939,1.215,6.462,3.18
		c7.339,9.244,14.482,16.803,17.334,17.949c1.426,0.574,1.078,0.666,2.564-0.307c1.486-0.975,4.488-4.121,7.795-10.564
		c1.395-2.686,4.361-4.453,7.386-4.412c3.023,0.043,5.963,1.895,7.282,4.617l66.876,141.547
		C520.674,481.972,516.32,488.83,510.749,488.758z"/>
</g>
</svg>
