<?xml version="1.0" encoding="utf-8"?>
<!-- Generator: Adobe Illustrator 15.0.0, SVG Export Plug-In . SVG Version: 6.00 Build 0)  -->
<!DOCTYPE svg PUBLIC "-//W3C//DTD SVG 1.1//EN" "http://www.w3.org/Graphics/SVG/1.1/DTD/svg11.dtd">
<svg version="1.1" id="Layer_1" xmlns="http://www.w3.org/2000/svg" xmlns:xlink="http://www.w3.org/1999/xlink" x="0px" y="0px"
	 width="580px" height="580px" viewBox="0 0 580 580" enable-background="new 0 0 580 580" xml:space="preserve">
<g id="Layer_1_1_">
	<g id="Layer_2">
		<g id="g1327">
			<path id="path1329" fill="#111111" stroke="#EEEEEE" stroke-width="3.408" d="M66.275,1.768
				c-41.335,0-64.571,21.371-64.571,65.036v450.123c0,40.845,20.896,62.229,62.192,62.229H515.92
				c41.307,0,62.229-20.314,62.229-62.229V66.804c0-42.602-20.924-65.036-63.521-65.036C514.625,1.768,66.133,1.625,66.275,1.768z"
				/>
		</g>
	</g>
</g>
<g>
	<path fill="#FFFFFF" d="M536.674,236.623c-9.924-0.207-18.069,7.668-18.263,17.56l-1.285,65.525l-454.115-3.027l1.778-138.693
		c0.127-9.893-7.791-18.016-17.684-18.143c-0.078-0.001-0.156-0.001-0.234-0.001c-9.786,0-17.782,7.87-17.908,17.685l-3.199,249.522
		c-0.127,9.894,7.791,18.017,17.684,18.144c0.078,0.001,0.156,0.001,0.234,0.001c9.786,0,17.782-7.87,17.908-17.686l0.961-75.003
		l453.872,3.026l-1.212,61.798c-0.194,9.893,7.668,18.068,17.561,18.263c0.119,0.002,0.238,0.004,0.357,0.004
		c9.729,0,17.713-7.792,17.904-17.563l3.199-163.149C554.427,244.993,546.565,236.817,536.674,236.623z"/>
	<path fill="#FFFFFF" d="M211.821,265.732c0,23.707,19.287,42.994,42.994,42.994H462.75c23.707,0,42.994-19.287,42.994-42.994
		c0-23.708-19.287-42.995-42.994-42.995H254.815C231.108,222.737,211.821,242.024,211.821,265.732z"/>
	<path fill="#FFFFFF" d="M161.24,244.547h0.025c16.657-0.006,32.481-5.903,44.56-16.606c12.918-11.448,20.324-27.602,20.316-44.346
		c-0.015-33.567-29.129-60.876-64.925-60.876c-16.657,0.006-32.481,5.903-44.56,16.606c-12.918,11.448-20.324,27.602-20.316,44.346
		C96.355,217.239,125.469,244.547,161.24,244.547z"/>
	<path fill="#FFFFFF" d="M94.061,304.439h89.572c12.083,0,21.914-9.83,21.914-21.915c0-12.083-9.831-21.914-21.914-21.914H94.061
		c-12.083,0-21.913,9.831-21.913,21.914C72.148,294.609,81.978,304.439,94.061,304.439z"/>
</g>
</svg>
