<?xml version="1.0" encoding="utf-8"?>
<!-- Generator: Adobe Illustrator 15.0.0, SVG Export Plug-In . SVG Version: 6.00 Build 0)  -->
<!DOCTYPE svg PUBLIC "-//W3C//DTD SVG 1.1//EN" "http://www.w3.org/Graphics/SVG/1.1/DTD/svg11.dtd">
<svg version="1.1" xmlns="http://www.w3.org/2000/svg" xmlns:xlink="http://www.w3.org/1999/xlink" x="0px" y="0px" width="580px"
	 height="580px" viewBox="0 0 580 580" enable-background="new 0 0 580 580" xml:space="preserve">
<g id="Layer_2_1_">
	<g id="Layer_2">
		<g id="g1327">
			<path id="path1329" fill="#111111" stroke="#EEEEEE" stroke-width="3.408" d="M66.275,1.768
				c-41.335,0-64.571,21.371-64.571,65.036v450.123c0,40.844,20.895,62.229,62.192,62.229h452.024
				c41.307,0,62.229-20.315,62.229-62.229V66.804c0-42.602-20.923-65.036-63.521-65.036C514.625,1.768,66.133,1.625,66.275,1.768z"
				/>
		</g>
	</g>
</g>
<g id="Layer_1">
	<g>
		<path fill="#FFFFFF" d="M536.472,125.368c-0.052,0-0.102,0-0.152,0c-9.823,0-17.829,7.923-17.911,17.766l-0.757,90.932
			l-454.08-3.027L64.79,42.753c0.064-9.894-7.904-17.966-17.798-18.03c-0.04,0-0.079,0-0.118,0c-9.839,0-17.848,7.944-17.912,17.799
			l-3.199,494.726c-0.064,9.895,7.904,17.967,17.798,18.03c0.04,0,0.079,0,0.118,0c9.839,0,17.848-7.944,17.912-17.798l0.226-34.894
			l453.576,3.024l-0.183,22.007c-0.082,9.894,7.871,17.981,17.765,18.063c0.052,0,0.102,0,0.152,0
			c9.823,0,17.829-7.923,17.911-17.765l3.199-384.484C554.319,133.538,546.366,125.451,536.472,125.368z M517.354,269.893
			l-1.663,199.889l-453.643-3.024l1.292-199.892L517.354,269.893z"/>
		<path fill="#FFFFFF" d="M255.76,448.83h169.36c20.211,0,36.654-16.443,36.654-36.654s-16.443-36.654-36.654-36.654H255.76
			c-20.211,0-36.654,16.443-36.654,36.654S235.55,448.83,255.76,448.83z"/>
		<path fill="#FFFFFF" d="M175.881,375.206h0.012c7.963-0.003,15.452-2.886,21.088-8.117c5.659-5.253,8.774-12.243,8.771-19.703
			c-0.008-15.315-13.407-27.776-29.882-27.776c-7.963,0.003-15.451,2.886-21.087,8.117c-5.66,5.253-8.775,12.242-8.772,19.703
			C146.018,362.745,159.418,375.206,175.881,375.206z M175.881,374.055L175.881,374.055L175.881,374.055L175.881,374.055z"/>
		<path fill="#FFFFFF" d="M122.756,445.187h73.396c10.221,0,18.535-8.314,18.535-18.534c0-10.221-8.314-18.535-18.535-18.535
			h-73.396c-10.221,0-18.535,8.314-18.535,18.535C104.22,436.873,112.535,445.187,122.756,445.187z"/>
		<path fill="#FFFFFF" d="M260.305,214.385h169.361c20.211,0,36.654-16.443,36.654-36.654s-16.443-36.653-36.654-36.653H260.305
			c-20.211,0-36.654,16.442-36.654,36.653S240.094,214.385,260.305,214.385z"/>
		<path fill="#FFFFFF" d="M180.427,140.761h0.012c7.963-0.003,15.451-2.886,21.087-8.117c5.659-5.253,8.774-12.243,8.771-19.702
			c-0.007-15.316-13.406-27.776-29.882-27.776c-7.963,0.003-15.451,2.885-21.087,8.116c-5.659,5.253-8.774,12.243-8.771,19.703
			C150.563,128.301,163.963,140.761,180.427,140.761z M180.427,139.611L180.427,139.611L180.427,139.611L180.427,139.611z"/>
		<path fill="#FFFFFF" d="M127.301,210.743h73.397c10.22,0,18.534-8.314,18.534-18.535c0-10.22-8.314-18.534-18.534-18.534h-73.397
			c-10.221,0-18.535,8.314-18.535,18.534C108.765,202.428,117.08,210.743,127.301,210.743z"/>
	</g>
</g>
</svg>
